<svg version="1.1" viewBox="0.0 0.0 937.9580052493438 514.0944881889764" fill="none" stroke="none" stroke-linecap="square" stroke-miterlimit="10" xmlns:xlink="http://www.w3.org/1999/xlink" xmlns="http://www.w3.org/2000/svg"><clipPath id="p.0"><path d="m0 0l937.958 0l0 514.0945l-937.958 0l0 -514.0945z" clip-rule="nonzero"/></clipPath><g clip-path="url(#p.0)"><path fill="#000000" fill-opacity="0.0" d="m0 0l937.958 0l0 514.0945l-937.958 0z" fill-rule="evenodd"/><path fill="#b4a7d6" d="m546.1601 292.70572l0 80.25198l11.874023 0l-23.748047 23.748016l-23.748016 -23.748016l11.873993 0l0 -80.25198z" fill-rule="evenodd"/><path fill="#cfe2f3" d="m17.237534 13.649607l226.74016 0l0 46.14173l-226.74016 0z" fill-rule="evenodd"/><path fill="#0b5394" d="m27.550034 42.58047l0 -11.453123l7.734375 0l0 1.3437481l-6.21875 0l0 3.546875l5.375 0l0 1.359375l-5.375 0l0 5.203125l-1.515625 0zm15.1953125 -2.671875l1.453125 0.171875q-0.34375 1.28125 -1.28125 1.984375q-0.921875 0.703125 -2.359375 0.703125q-1.828125 0 -2.890625 -1.125q-1.0625 -1.125 -1.0625 -3.140625q0 -2.09375 1.078125 -3.25q1.078125 -1.15625 2.796875 -1.15625q1.65625 0 2.703125 1.140625q1.0625 1.125 1.0625 3.171875q0 0.125 0 0.375l-6.1875 0q0.078125 1.375 0.765625 2.109375q0.703125 0.71875 1.734375 0.71875q0.78125 0 1.328125 -0.40625q0.546875 -0.40625 0.859375 -1.296875zm-4.609375 -2.28125l4.625 0q-0.09375 -1.046875 -0.53125 -1.5625q-0.671875 -0.8125 -1.734375 -0.8125q-0.96875 0 -1.640625 0.65625q-0.65625 0.640625 -0.71875 1.71875zm10.8984375 3.6875l0.203125 1.25q-0.59375 0.125 -1.0625 0.125q-0.765625 0 -1.1875 -0.234375q-0.421875 -0.25 -0.59375 -0.640625q-0.171875 -0.40625 -0.171875 -1.671875l0 -4.765625l-1.03125 0l0 -1.09375l1.03125 0l0 -2.0625l1.40625 -0.8437481l0 2.906248l1.40625 0l0 1.09375l-1.40625 0l0 4.84375q0 0.609375 0.0625 0.78125q0.078125 0.171875 0.25 0.28125q0.171875 0.09375 0.484375 0.09375q0.234375 0 0.609375 -0.0625zm6.7890625 -1.78125l1.390625 0.1875q-0.234375 1.421875 -1.171875 2.234375q-0.921875 0.8125 -2.28125 0.8125q-1.703125 0 -2.75 -1.109375q-1.03125 -1.125 -1.03125 -3.203125q0 -1.34375 0.4375 -2.34375q0.453125 -1.015625 1.359375 -1.515625q0.921875 -0.5 1.984375 -0.5q1.359375 0 2.21875 0.6875q0.859375 0.671875 1.09375 1.9375l-1.359375 0.203125q-0.203125 -0.828125 -0.703125 -1.25q-0.484375 -0.421875 -1.1875 -0.421875q-1.0625 0 -1.734375 0.765625q-0.65625 0.75 -0.65625 2.40625q0 1.671875 0.640625 2.4375q0.640625 0.75 1.671875 0.75q0.828125 0 1.375 -0.5q0.5625 -0.515625 0.703125 -1.578125zm2.59375 3.046875l0 -11.453123l1.40625 0l0 4.109373q0.984375 -1.140625 2.484375 -1.140625q0.921875 0 1.59375 0.359375q0.6875 0.359375 0.96875 1.0q0.296875 0.640625 0.296875 1.859375l0 5.265625l-1.40625 0l0 -5.265625q0 -1.046875 -0.453125 -1.53125q-0.453125 -0.484375 -1.296875 -0.484375q-0.625 0 -1.171875 0.328125q-0.546875 0.328125 -0.78125 0.890625q-0.234375 0.546875 -0.234375 1.515625l0 4.546875l-1.40625 0z" fill-rule="nonzero"/><path fill="#0b5394" d="m72.057846 45.83047l1.4375 0l0 -4.0625q0.15625 0.171875 0.328125 0.3125q0.1875 0.140625 0.390625 0.265625q0.34375 0.1875 0.75 0.28125q0.421875 0.109375 0.90625 0.109375q0.796875 0 1.421875 -0.328125q0.625 -0.328125 1.046875 -0.90625q0.421875 -0.578125 0.640625 -1.359375q0.21875 -0.796875 0.21875 -1.703125l0 -0.15625q0 -0.953125 -0.21875 -1.734375q-0.21875 -0.796875 -0.640625 -1.375q-0.421875 -0.5625 -1.046875 -0.875q-0.625 -0.328125 -1.4375 -0.328125q-0.46875 0 -0.875 0.09375q-0.390625 0.09375 -0.71875 0.28125q-0.234375 0.125 -0.4375 0.3125q-0.203125 0.171875 -0.375 0.390625l-0.078125 -0.921875l-1.3125 0l0 11.703125zm5.6875 -7.546875l0 0.15625q0 0.625 -0.140625 1.1875q-0.125 0.5625 -0.40625 0.984375q-0.28125 0.4375 -0.71875 0.6875q-0.4375 0.25 -1.046875 0.25q-0.375 0 -0.6875 -0.09375q-0.296875 -0.09375 -0.546875 -0.25q-0.21875 -0.140625 -0.390625 -0.34375q-0.171875 -0.203125 -0.3125 -0.4375l0 -4.078125q0.15625 -0.265625 0.34375 -0.484375q0.203125 -0.21875 0.453125 -0.359375q0.21875 -0.15625 0.5 -0.234375q0.296875 -0.078125 0.625 -0.078125q0.609375 0 1.046875 0.25q0.4375 0.25 0.734375 0.671875q0.28125 0.4375 0.40625 1.0q0.140625 0.546875 0.140625 1.171875zm7.6484375 4.453125q1.234375 0 2.078125 -0.5q0.84375 -0.5 1.265625 -1.140625l-0.890625 -0.6875q-0.390625 0.515625 -1.0 0.828125q-0.59375 0.3125 -1.375 0.3125q-0.578125 0 -1.0625 -0.21875q-0.484375 -0.21875 -0.828125 -0.59375q-0.34375 -0.359375 -0.53125 -0.828125q-0.1875 -0.46875 -0.25 -1.09375l0 -0.046875l6.046875 0l0 -0.65625q0 -0.875 -0.234375 -1.625q-0.21875 -0.765625 -0.671875 -1.328125q-0.453125 -0.5625 -1.140625 -0.875q-0.671875 -0.3125 -1.59375 -0.3125q-0.71875 0 -1.421875 0.296875q-0.6875 0.296875 -1.21875 0.84375q-0.546875 0.5625 -0.875 1.375q-0.328125 0.8125 -0.328125 1.828125l0 0.328125q0 0.890625 0.296875 1.640625q0.296875 0.75 0.828125 1.296875q0.53125 0.546875 1.265625 0.859375q0.75 0.296875 1.640625 0.296875zm-0.1875 -7.578125q0.5625 0 0.953125 0.203125q0.40625 0.203125 0.671875 0.53125q0.265625 0.328125 0.40625 0.78125q0.15625 0.4375 0.15625 0.828125l0 0.078125l-4.546875 0q0.09375 -0.59375 0.296875 -1.03125q0.21875 -0.453125 0.53125 -0.765625q0.3125 -0.3125 0.703125 -0.46875q0.390625 -0.15625 0.828125 -0.15625zm6.0546875 7.421875l1.453125 0l0 -6.0625q0.140625 -0.28125 0.34375 -0.5q0.203125 -0.234375 0.4375 -0.40625q0.28125 -0.1875 0.625 -0.296875q0.34375 -0.125 0.75 -0.125q0.453125 0 0.8125 0.109375q0.359375 0.109375 0.609375 0.359375q0.234375 0.234375 0.359375 0.625q0.125 0.390625 0.125 0.953125l0 5.34375l1.453125 0l0 -5.375q0 -0.84375 -0.21875 -1.453125q-0.203125 -0.609375 -0.578125 -1.015625q-0.390625 -0.390625 -0.9375 -0.578125q-0.53125 -0.1875 -1.203125 -0.1875q-0.484375 0 -0.9375 0.140625q-0.4375 0.140625 -0.8125 0.390625q-0.25 0.15625 -0.46875 0.390625q-0.21875 0.21875 -0.40625 0.484375l-0.109375 -1.25l-1.296875 0l0 8.453125zm9.3359375 -4.296875l0 0.15625q0 0.90625 0.234375 1.703125q0.25 0.78125 0.6875 1.359375q0.4375 0.578125 1.046875 0.90625q0.625 0.328125 1.390625 0.328125q0.78125 0 1.359375 -0.265625q0.59375 -0.265625 1.015625 -0.78125l0.0625 0.890625l1.328125 0l0 -11.999998l-1.4375 0l0 4.374998q-0.421875 -0.484375 -0.984375 -0.734375q-0.5625 -0.25 -1.328125 -0.25q-0.765625 0 -1.390625 0.328125q-0.625 0.3125 -1.0625 0.875q-0.453125 0.578125 -0.6875 1.375q-0.234375 0.78125 -0.234375 1.734375zm1.4375 0.15625l0 -0.15625q0 -0.625 0.125 -1.171875q0.140625 -0.5625 0.421875 -1.0q0.28125 -0.421875 0.703125 -0.671875q0.4375 -0.25 1.046875 -0.25q0.71875 0 1.1875 0.34375q0.484375 0.328125 0.765625 0.84375l0 3.921875q-0.28125 0.546875 -0.765625 0.875q-0.46875 0.328125 -1.203125 0.328125q-0.59375 0 -1.03125 -0.234375q-0.421875 -0.25 -0.703125 -0.671875q-0.28125 -0.421875 -0.421875 -0.96875q-0.125 -0.5625 -0.125 -1.1875zm8.6640625 -4.3125l0 1.25l2.875 0l0 5.953125l-2.875 0l0 1.25l7.078125 0l0 -1.25l-2.765625 0l0 -7.203125l-4.3125 0zm2.6875 -2.218748q0 0.3437481 0.203125 0.5781231q0.21875 0.234375 0.65625 0.234375q0.4375 0 0.65625 -0.234375q0.21875 -0.234375 0.21875 -0.5781231q0 -0.203125 -0.0625 -0.359375q-0.0625 -0.171875 -0.1875 -0.28125q-0.109375 -0.09375 -0.265625 -0.15625q-0.15625 -0.0625 -0.359375 -0.0625q-0.203125 0 -0.359375 0.0625q-0.15625 0.0625 -0.265625 0.15625q-0.125 0.125 -0.1875 0.296875q-0.046875 0.15625 -0.046875 0.34375zm6.6796875 10.671873l1.453125 0l0 -6.0625q0.140625 -0.28125 0.34375 -0.5q0.203125 -0.234375 0.4375 -0.40625q0.28125 -0.1875 0.625 -0.296875q0.34375 -0.125 0.75 -0.125q0.453125 0 0.8125 0.109375q0.359375 0.109375 0.609375 0.359375q0.234375 0.234375 0.359375 0.625q0.125 0.390625 0.125 0.953125l0 5.34375l1.453125 0l0 -5.375q0 -0.84375 -0.21875 -1.453125q-0.203125 -0.609375 -0.578125 -1.015625q-0.390625 -0.390625 -0.9375 -0.578125q-0.53125 -0.1875 -1.203125 -0.1875q-0.484375 0 -0.9375 0.140625q-0.4375 0.140625 -0.8125 0.390625q-0.25 0.15625 -0.46875 0.390625q-0.21875 0.21875 -0.40625 0.484375l-0.109375 -1.25l-1.296875 0l0 8.453125zm9.3359375 -4.296875l0 0.15625q0 0.90625 0.234375 1.703125q0.234375 0.78125 0.671875 1.359375q0.4375 0.578125 1.0625 0.90625q0.625 0.328125 1.390625 0.328125q0.46875 0 0.859375 -0.109375q0.40625 -0.09375 0.734375 -0.265625q0.203125 -0.125 0.390625 -0.28125q0.1875 -0.15625 0.34375 -0.34375l0 0.734375q0 0.546875 -0.15625 0.96875q-0.15625 0.421875 -0.4375 0.703125q-0.296875 0.296875 -0.71875 0.4375q-0.40625 0.15625 -0.921875 0.15625q-0.296875 0 -0.59375 -0.0625q-0.28125 -0.0625 -0.5625 -0.1875q-0.296875 -0.140625 -0.578125 -0.359375q-0.28125 -0.21875 -0.546875 -0.546875l-0.75 0.875q0.296875 0.40625 0.6875 0.6875q0.40625 0.28125 0.84375 0.453125q0.4375 0.171875 0.859375 0.234375q0.421875 0.078125 0.75 0.078125q0.796875 0 1.453125 -0.234375q0.65625 -0.234375 1.125 -0.6875q0.46875 -0.453125 0.734375 -1.109375q0.265625 -0.640625 0.265625 -1.484375l0 -8.265625l-1.3125 0l-0.078125 0.921875q-0.140625 -0.1875 -0.3125 -0.34375q-0.171875 -0.15625 -0.359375 -0.28125q-0.34375 -0.21875 -0.765625 -0.328125q-0.421875 -0.125 -0.9375 -0.125q-0.78125 0 -1.40625 0.328125q-0.625 0.3125 -1.0625 0.875q-0.4375 0.578125 -0.671875 1.375q-0.234375 0.78125 -0.234375 1.734375zm1.453125 0.15625l0 -0.15625q0 -0.625 0.125 -1.171875q0.125 -0.5625 0.40625 -1.0q0.28125 -0.421875 0.703125 -0.671875q0.4375 -0.25 1.046875 -0.25q0.359375 0 0.65625 0.09375q0.296875 0.09375 0.546875 0.25q0.234375 0.15625 0.421875 0.375q0.1875 0.21875 0.328125 0.484375l0 3.875q-0.140625 0.28125 -0.328125 0.515625q-0.1875 0.21875 -0.421875 0.375q-0.234375 0.171875 -0.546875 0.265625q-0.296875 0.078125 -0.671875 0.078125q-0.59375 0 -1.03125 -0.234375q-0.421875 -0.25 -0.703125 -0.671875q-0.28125 -0.421875 -0.40625 -0.96875q-0.125 -0.5625 -0.125 -1.1875zm15.4296875 5.328125l0 -1.1875l-7.15625 0l0 1.1875l7.15625 0zm9.7578125 -5.328125l0 -0.15625q0 -0.671875 -0.109375 -1.265625q-0.109375 -0.59375 -0.328125 -1.09375q-0.203125 -0.4375 -0.46875 -0.78125q-0.265625 -0.359375 -0.59375 -0.609375q-0.375 -0.265625 -0.84375 -0.40625q-0.453125 -0.15625 -1.0 -0.15625q-0.4375 0 -0.8125 0.09375q-0.375 0.078125 -0.6875 0.234375q-0.25 0.140625 -0.46875 0.328125q-0.21875 0.171875 -0.40625 0.40625l0 -4.453123l-1.4375 0l0 11.999998l1.328125 0l0.0625 -0.96875q0.140625 0.1875 0.296875 0.34375q0.15625 0.140625 0.328125 0.265625q0.359375 0.25 0.8125 0.375q0.453125 0.140625 1.0 0.140625q0.46875 0 0.875 -0.125q0.421875 -0.109375 0.765625 -0.328125q0.46875 -0.296875 0.8125 -0.765625q0.34375 -0.46875 0.546875 -1.046875q0.15625 -0.453125 0.234375 -0.953125q0.09375 -0.515625 0.09375 -1.078125zm-1.453125 -0.15625l0 0.15625q0 0.375 -0.046875 0.734375q-0.046875 0.359375 -0.140625 0.671875q-0.125 0.421875 -0.34375 0.765625q-0.203125 0.328125 -0.515625 0.546875q-0.234375 0.171875 -0.53125 0.265625q-0.296875 0.078125 -0.65625 0.078125q-0.375 0 -0.6875 -0.09375q-0.3125 -0.09375 -0.5625 -0.28125q-0.25 -0.171875 -0.453125 -0.40625q-0.1875 -0.25 -0.328125 -0.53125l0 -3.6875q0.140625 -0.28125 0.328125 -0.515625q0.1875 -0.25 0.4375 -0.421875q0.25 -0.171875 0.5625 -0.265625q0.3125 -0.109375 0.6875 -0.109375q0.34375 0 0.625 0.078125q0.28125 0.078125 0.5 0.21875q0.328125 0.203125 0.546875 0.546875q0.234375 0.34375 0.375 0.75q0.109375 0.34375 0.15625 0.71875q0.046875 0.375 0.046875 0.78125zm9.4453125 4.296875l1.5 0l0 -0.125q-0.140625 -0.359375 -0.21875 -0.828125q-0.078125 -0.46875 -0.078125 -0.890625l0 -3.9375q0 -0.703125 -0.265625 -1.234375q-0.25 -0.53125 -0.6875 -0.890625q-0.453125 -0.359375 -1.078125 -0.53125q-0.609375 -0.171875 -1.328125 -0.171875q-0.796875 0 -1.421875 0.21875q-0.609375 0.21875 -1.046875 0.5625q-0.4375 0.359375 -0.671875 0.8125q-0.21875 0.4375 -0.234375 0.90625l1.453125 0q0 -0.265625 0.125 -0.515625q0.140625 -0.25 0.375 -0.421875q0.234375 -0.1875 0.5625 -0.296875q0.34375 -0.109375 0.78125 -0.109375q0.453125 0 0.828125 0.125q0.375 0.109375 0.625 0.328125q0.265625 0.21875 0.40625 0.53125q0.140625 0.296875 0.140625 0.671875l0 0.671875l-1.578125 0q-0.890625 0 -1.609375 0.171875q-0.703125 0.171875 -1.21875 0.515625q-0.5 0.34375 -0.78125 0.875q-0.28125 0.515625 -0.28125 1.21875q0 0.53125 0.203125 0.984375q0.21875 0.453125 0.59375 0.78125q0.375 0.34375 0.921875 0.546875q0.546875 0.1875 1.21875 0.1875q0.40625 0 0.765625 -0.09375q0.375 -0.078125 0.703125 -0.234375q0.328125 -0.140625 0.59375 -0.328125q0.265625 -0.203125 0.484375 -0.421875q0.03125 0.265625 0.078125 0.515625q0.046875 0.234375 0.140625 0.40625zm-2.5625 -1.109375q-0.421875 0 -0.75 -0.109375q-0.3125 -0.109375 -0.515625 -0.296875q-0.21875 -0.1875 -0.328125 -0.453125q-0.09375 -0.265625 -0.09375 -0.578125q0 -0.328125 0.109375 -0.578125q0.125 -0.265625 0.359375 -0.453125q0.328125 -0.265625 0.890625 -0.390625q0.5625 -0.140625 1.3125 -0.140625l1.34375 0l0 1.71875q-0.125 0.25 -0.34375 0.484375q-0.21875 0.21875 -0.515625 0.40625q-0.3125 0.171875 -0.6875 0.28125q-0.359375 0.109375 -0.78125 0.109375zm10.0234375 -9.390625l-1.453125 0l0 2.046875l-2.21875 0l0 1.109375l2.21875 0l0 4.59375q0 0.78125 0.203125 1.34375q0.21875 0.546875 0.578125 0.890625q0.359375 0.34375 0.84375 0.515625q0.484375 0.15625 1.046875 0.15625q0.34375 0 0.671875 -0.03125q0.34375 -0.03125 0.65625 -0.09375q0.296875 -0.0625 0.546875 -0.140625q0.265625 -0.078125 0.453125 -0.1875l-0.203125 -1.03125q-0.140625 0.03125 -0.34375 0.078125q-0.203125 0.046875 -0.4375 0.078125q-0.25 0.046875 -0.5 0.078125q-0.25 0.015625 -0.484375 0.015625q-0.3125 0 -0.609375 -0.078125q-0.28125 -0.078125 -0.5 -0.265625q-0.21875 -0.1875 -0.34375 -0.5q-0.125 -0.328125 -0.125 -0.828125l0 -4.59375l3.21875 0l0 -1.109375l-3.21875 0l0 -2.046875zm9.7890625 9.484375q-0.6875 0 -1.140625 -0.265625q-0.453125 -0.28125 -0.734375 -0.71875q-0.28125 -0.421875 -0.40625 -0.96875q-0.109375 -0.546875 -0.109375 -1.09375l0 -0.328125q0 -0.546875 0.109375 -1.078125q0.125 -0.546875 0.40625 -0.984375q0.28125 -0.4375 0.734375 -0.703125q0.46875 -0.265625 1.140625 -0.265625q0.4375 0 0.8125 0.15625q0.375 0.140625 0.65625 0.390625q0.265625 0.265625 0.421875 0.609375q0.171875 0.328125 0.171875 0.71875l1.375 0q0 -0.640625 -0.265625 -1.203125q-0.25 -0.5625 -0.703125 -0.984375q-0.46875 -0.40625 -1.09375 -0.640625q-0.625 -0.234375 -1.375 -0.234375q-0.96875 0 -1.6875 0.34375q-0.71875 0.34375 -1.1875 0.921875q-0.484375 0.578125 -0.734375 1.34375q-0.234375 0.765625 -0.234375 1.609375l0 0.328125q0 0.84375 0.234375 1.609375q0.25 0.75 0.734375 1.328125q0.46875 0.59375 1.1875 0.9375q0.71875 0.34375 1.6875 0.34375q0.671875 0 1.28125 -0.234375q0.625 -0.234375 1.09375 -0.625q0.484375 -0.375 0.765625 -0.890625q0.28125 -0.515625 0.296875 -1.078125l-1.375 0q0 0.359375 -0.1875 0.65625q-0.171875 0.296875 -0.453125 0.515625q-0.296875 0.234375 -0.671875 0.359375q-0.359375 0.125 -0.75 0.125zm7.4453125 -6.1875l0 -4.796873l-1.453125 0l0 11.999998l1.453125 0l0 -6.140625q0.15625 -0.25 0.34375 -0.453125q0.203125 -0.21875 0.4375 -0.375q0.296875 -0.203125 0.640625 -0.3125q0.359375 -0.109375 0.75 -0.109375q0.484375 0 0.84375 0.140625q0.375 0.125 0.609375 0.40625q0.234375 0.25 0.34375 0.625q0.125 0.375 0.125 0.875l0 5.34375l1.4375 0l0 -5.328125q0 -0.84375 -0.203125 -1.46875q-0.203125 -0.625 -0.59375 -1.03125q-0.375 -0.40625 -0.921875 -0.59375q-0.546875 -0.1875 -1.203125 -0.1875q-0.515625 0 -0.96875 0.140625q-0.4375 0.140625 -0.8125 0.421875q-0.234375 0.15625 -0.453125 0.375q-0.203125 0.21875 -0.375 0.46875zm11.8828125 7.359375q1.234375 0 2.078125 -0.5q0.84375 -0.5 1.265625 -1.140625l-0.890625 -0.6875q-0.390625 0.515625 -1.0 0.828125q-0.59375 0.3125 -1.375 0.3125q-0.578125 0 -1.0625 -0.21875q-0.484375 -0.21875 -0.828125 -0.59375q-0.34375 -0.359375 -0.53125 -0.828125q-0.1875 -0.46875 -0.25 -1.09375l0 -0.046875l6.046875 0l0 -0.65625q0 -0.875 -0.234375 -1.625q-0.21875 -0.765625 -0.671875 -1.328125q-0.453125 -0.5625 -1.140625 -0.875q-0.671875 -0.3125 -1.59375 -0.3125q-0.71875 0 -1.421875 0.296875q-0.6875 0.296875 -1.21875 0.84375q-0.546875 0.5625 -0.875 1.375q-0.328125 0.8125 -0.328125 1.828125l0 0.328125q0 0.890625 0.296875 1.640625q0.296875 0.75 0.828125 1.296875q0.53125 0.546875 1.265625 0.859375q0.75 0.296875 1.640625 0.296875zm-0.1875 -7.578125q0.5625 0 0.953125 0.203125q0.40625 0.203125 0.671875 0.53125q0.265625 0.328125 0.40625 0.78125q0.15625 0.4375 0.15625 0.828125l0 0.078125l-4.546875 0q0.09375 -0.59375 0.296875 -1.03125q0.21875 -0.453125 0.53125 -0.765625q0.3125 -0.3125 0.703125 -0.46875q0.390625 -0.15625 0.828125 -0.15625zm11.6796875 5.171875q0 0.203125 -0.078125 0.390625q-0.078125 0.171875 -0.234375 0.328125q-0.234375 0.234375 -0.671875 0.375q-0.421875 0.140625 -1.0 0.140625q-0.375 0 -0.75 -0.078125q-0.375 -0.078125 -0.671875 -0.265625q-0.3125 -0.1875 -0.53125 -0.484375q-0.203125 -0.3125 -0.234375 -0.765625l-1.4375 0q0 0.546875 0.234375 1.046875q0.25 0.5 0.71875 0.875q0.46875 0.375 1.140625 0.609375q0.671875 0.234375 1.53125 0.234375q0.75 0 1.375 -0.171875q0.640625 -0.1875 1.09375 -0.515625q0.453125 -0.328125 0.703125 -0.78125q0.25 -0.46875 0.25 -1.03125q0 -0.53125 -0.21875 -0.921875q-0.21875 -0.40625 -0.640625 -0.703125q-0.421875 -0.296875 -1.046875 -0.515625q-0.609375 -0.21875 -1.390625 -0.375q-0.59375 -0.125 -0.984375 -0.25q-0.390625 -0.125 -0.609375 -0.28125q-0.234375 -0.15625 -0.328125 -0.34375q-0.09375 -0.203125 -0.09375 -0.453125q0 -0.234375 0.109375 -0.453125q0.125 -0.234375 0.359375 -0.40625q0.21875 -0.171875 0.5625 -0.265625q0.359375 -0.109375 0.8125 -0.109375q0.453125 0 0.796875 0.125q0.359375 0.125 0.609375 0.328125q0.25 0.203125 0.390625 0.46875q0.140625 0.25 0.140625 0.53125l1.453125 0q0 -0.5625 -0.25 -1.03125q-0.234375 -0.484375 -0.671875 -0.84375q-0.4375 -0.359375 -1.0625 -0.5625q-0.625 -0.203125 -1.40625 -0.203125q-0.71875 0 -1.328125 0.203125q-0.609375 0.1875 -1.046875 0.515625q-0.4375 0.34375 -0.6875 0.796875q-0.234375 0.4375 -0.234375 0.953125q0 0.53125 0.234375 0.921875q0.234375 0.390625 0.671875 0.6875q0.421875 0.296875 1.015625 0.515625q0.59375 0.203125 1.328125 0.34375q0.59375 0.125 0.984375 0.265625q0.40625 0.140625 0.640625 0.3125q0.25 0.171875 0.34375 0.390625q0.109375 0.203125 0.109375 0.453125z" fill-rule="nonzero"/><path fill="#93c47d" d="m622.41077 255.94882l139.18701 0c16.232605 0 29.391724 13.159119 29.391724 29.391724l0 20.99411l8.397644 0l-16.795288 16.795258l-16.795288 -16.795258l8.397644 0l0 -20.99411l0 0c0 -6.9568176 -5.6395874 -12.596466 -12.596436 -12.596466l-139.18701 0z" fill-rule="evenodd"/><path fill="#93c47d" d="m697.75195 375.1404l-79.51178 0c-19.54309 0 -35.385864 -15.842773 -35.385864 -35.385803l0 -25.275604l-10.1102295 0l20.220459 -20.220459l20.22052 20.220459l-10.1102295 0l0 25.275604l0 0c0 8.37558 6.789734 15.165344 15.165344 15.165344l79.51178 0z" fill-rule="evenodd"/><path fill="#9fc5e8" d="m243.97769 25.18504l57.968506 0l0 -11.535433l23.070862 23.070868l-23.070862 23.070866l0 -11.535435l-57.968506 0z" fill-rule="evenodd"/><path fill="#b4a7d6" d="m436.25482 16.818897l71.29135 0c19.54306 0 35.385834 15.842773 35.385834 35.385826l0 25.275593l10.1102295 0l-20.220459 20.220474l-20.22052 -20.220474l10.1102295 0l0 -25.275593l0 0c0 -8.375591 -6.789734 -15.165352 -15.165314 -15.165352l-71.29135 0z" fill-rule="evenodd"/><path fill="#b4a7d6" d="m446.7349 426.97113l-19.474121 0l0 0c-15.524841 0 -28.11023 -12.585388 -28.11023 -28.11023l0 -306.9449l-16.667603 0l29.766022 -32.12598l29.765991 32.12598l-16.667603 0l0 306.9449c0 1.0567322 0.85665894 1.9134216 1.9134216 1.9134216l19.474121 0z" fill-rule="evenodd"/><path fill="#b4a7d6" d="m546.1588 165.0853l0 53.385834l11.874023 0l-23.748047 23.748032l-23.748047 -23.748032l11.874023 0l0 -53.385834z" fill-rule="evenodd"/><path fill="#d9d2e9" d="m445.7021 239.91689l177.16534 0l0 55.464554l-177.16534 0z" fill-rule="evenodd"/><path fill="#351c75" d="m456.0146 273.50916l0 -11.453125l7.734375 0l0 1.34375l-6.21875 0l0 3.546875l5.375 0l0 1.359375l-5.375 0l0 5.203125l-1.515625 0zm8.9921875 -4.15625q0 -2.296875 1.28125 -3.40625q1.078125 -0.921875 2.609375 -0.921875q1.71875 0 2.796875 1.125q1.09375 1.109375 1.09375 3.09375q0 1.59375 -0.484375 2.515625q-0.484375 0.921875 -1.40625 1.4375q-0.90625 0.5 -2.0 0.5q-1.734375 0 -2.8125 -1.109375q-1.078125 -1.125 -1.078125 -3.234375zm1.453125 0q0 1.59375 0.6875 2.390625q0.703125 0.796875 1.75 0.796875q1.046875 0 1.734375 -0.796875q0.703125 -0.796875 0.703125 -2.4375q0 -1.53125 -0.703125 -2.328125q-0.6875 -0.796875 -1.734375 -0.796875q-1.046875 0 -1.75 0.796875q-0.6875 0.78125 -0.6875 2.375zm7.9609375 4.15625l0 -8.296875l1.265625 0l0 1.25q0.484375 -0.875 0.890625 -1.15625q0.40625 -0.28125 0.90625 -0.28125q0.703125 0 1.4375 0.453125l-0.484375 1.296875q-0.515625 -0.296875 -1.03125 -0.296875q-0.453125 0 -0.828125 0.28125q-0.359375 0.265625 -0.515625 0.765625q-0.234375 0.75 -0.234375 1.640625l0 4.34375l-1.40625 0zm15.4609375 -2.671875l1.453125 0.171875q-0.34375 1.28125 -1.28125 1.984375q-0.921875 0.703125 -2.359375 0.703125q-1.828125 0 -2.890625 -1.125q-1.0625 -1.125 -1.0625 -3.140625q0 -2.09375 1.078125 -3.25q1.078125 -1.15625 2.796875 -1.15625q1.65625 0 2.703125 1.140625q1.0625 1.125 1.0625 3.171875q0 0.125 0 0.375l-6.1875 0q0.078125 1.375 0.765625 2.109375q0.703125 0.71875 1.734375 0.71875q0.78125 0 1.328125 -0.40625q0.546875 -0.40625 0.859375 -1.296875zm-4.609375 -2.28125l4.625 0q-0.09375 -1.046875 -0.53125 -1.5625q-0.671875 -0.8125 -1.734375 -0.8125q-0.96875 0 -1.640625 0.65625q-0.65625 0.640625 -0.71875 1.71875zm13.2421875 3.921875q-0.78125 0.671875 -1.5 0.953125q-0.71875 0.265625 -1.546875 0.265625q-1.375 0 -2.109375 -0.671875q-0.734375 -0.671875 -0.734375 -1.703125q0 -0.609375 0.28125 -1.109375q0.28125 -0.515625 0.71875 -0.8125q0.453125 -0.3125 1.015625 -0.46875q0.421875 -0.109375 1.25 -0.203125q1.703125 -0.203125 2.515625 -0.484375q0 -0.296875 0 -0.375q0 -0.859375 -0.390625 -1.203125q-0.546875 -0.484375 -1.609375 -0.484375q-0.984375 0 -1.46875 0.359375q-0.46875 0.34375 -0.6875 1.21875l-1.375 -0.1875q0.1875 -0.875 0.609375 -1.421875q0.4375 -0.546875 1.25 -0.828125q0.8125 -0.296875 1.875 -0.296875q1.0625 0 1.71875 0.25q0.671875 0.25 0.984375 0.625q0.3125 0.375 0.4375 0.953125q0.078125 0.359375 0.078125 1.296875l0 1.875q0 1.96875 0.078125 2.484375q0.09375 0.515625 0.359375 1.0l-1.46875 0q-0.21875 -0.4375 -0.28125 -1.03125zm-0.109375 -3.140625q-0.765625 0.3125 -2.296875 0.53125q-0.875 0.125 -1.234375 0.28125q-0.359375 0.15625 -0.5625 0.46875q-0.1875 0.296875 -0.1875 0.65625q0 0.5625 0.421875 0.9375q0.4375 0.375 1.25 0.375q0.8125 0 1.4375 -0.34375q0.640625 -0.359375 0.9375 -0.984375q0.234375 -0.46875 0.234375 -1.40625l0 -0.515625zm9.0078125 1.125l1.390625 0.1875q-0.234375 1.421875 -1.171875 2.234375q-0.921875 0.8125 -2.28125 0.8125q-1.703125 0 -2.75 -1.109375q-1.03125 -1.125 -1.03125 -3.203125q0 -1.34375 0.4375 -2.34375q0.453125 -1.015625 1.359375 -1.515625q0.921875 -0.5 1.984375 -0.5q1.359375 0 2.21875 0.6875q0.859375 0.671875 1.09375 1.9375l-1.359375 0.203125q-0.203125 -0.828125 -0.703125 -1.25q-0.484375 -0.421875 -1.1875 -0.421875q-1.0625 0 -1.734375 0.765625q-0.65625 0.75 -0.65625 2.40625q0 1.671875 0.640625 2.4375q0.640625 0.75 1.671875 0.75q0.828125 0 1.375 -0.5q0.5625 -0.515625 0.703125 -1.578125zm2.59375 3.046875l0 -11.453125l1.40625 0l0 4.109375q0.984375 -1.140625 2.484375 -1.140625q0.921875 0 1.59375 0.359375q0.6875 0.359375 0.96875 1.0q0.296875 0.640625 0.296875 1.859375l0 5.265625l-1.40625 0l0 -5.265625q0 -1.046875 -0.453125 -1.53125q-0.453125 -0.484375 -1.296875 -0.484375q-0.625 0 -1.171875 0.328125q-0.546875 0.328125 -0.78125 0.890625q-0.234375 0.546875 -0.234375 1.515625l0 4.546875l-1.40625 0zm14.640625 0l-1.3125 0l0 -11.453125l1.40625 0l0 4.078125q0.890625 -1.109375 2.28125 -1.109375q0.765625 0 1.4375 0.3125q0.6875 0.296875 1.125 0.859375q0.453125 0.5625 0.703125 1.359375q0.25 0.78125 0.25 1.671875q0 2.140625 -1.0625 3.3125q-1.046875 1.15625 -2.53125 1.15625q-1.46875 0 -2.296875 -1.234375l0 1.046875zm-0.015625 -4.21875q0 1.5 0.40625 2.15625q0.65625 1.09375 1.796875 1.09375q0.921875 0 1.59375 -0.796875q0.671875 -0.8125 0.671875 -2.390625q0 -1.625 -0.65625 -2.390625q-0.640625 -0.78125 -1.546875 -0.78125q-0.921875 0 -1.59375 0.796875q-0.671875 0.796875 -0.671875 2.3125zm13.0234375 3.1875q-0.78125 0.671875 -1.5 0.953125q-0.71875 0.265625 -1.546875 0.265625q-1.375 0 -2.109375 -0.671875q-0.734375 -0.671875 -0.734375 -1.703125q0 -0.609375 0.28125 -1.109375q0.28125 -0.515625 0.71875 -0.8125q0.453125 -0.3125 1.015625 -0.46875q0.421875 -0.109375 1.25 -0.203125q1.703125 -0.203125 2.515625 -0.484375q0 -0.296875 0 -0.375q0 -0.859375 -0.390625 -1.203125q-0.546875 -0.484375 -1.609375 -0.484375q-0.984375 0 -1.46875 0.359375q-0.46875 0.34375 -0.6875 1.21875l-1.375 -0.1875q0.1875 -0.875 0.609375 -1.421875q0.4375 -0.546875 1.25 -0.828125q0.8125 -0.296875 1.875 -0.296875q1.0625 0 1.71875 0.25q0.671875 0.25 0.984375 0.625q0.3125 0.375 0.4375 0.953125q0.078125 0.359375 0.078125 1.296875l0 1.875q0 1.96875 0.078125 2.484375q0.09375 0.515625 0.359375 1.0l-1.46875 0q-0.21875 -0.4375 -0.28125 -1.03125zm-0.109375 -3.140625q-0.765625 0.3125 -2.296875 0.53125q-0.875 0.125 -1.234375 0.28125q-0.359375 0.15625 -0.5625 0.46875q-0.1875 0.296875 -0.1875 0.65625q0 0.5625 0.421875 0.9375q0.4375 0.375 1.25 0.375q0.8125 0 1.4375 -0.34375q0.640625 -0.359375 0.9375 -0.984375q0.234375 -0.46875 0.234375 -1.40625l0 -0.515625zm6.6640625 2.90625l0.203125 1.25q-0.59375 0.125 -1.0625 0.125q-0.765625 0 -1.1875 -0.234375q-0.421875 -0.25 -0.59375 -0.640625q-0.171875 -0.40625 -0.171875 -1.671875l0 -4.765625l-1.03125 0l0 -1.09375l1.03125 0l0 -2.0625l1.40625 -0.84375l0 2.90625l1.40625 0l0 1.09375l-1.40625 0l0 4.84375q0 0.609375 0.0625 0.78125q0.078125 0.171875 0.25 0.28125q0.171875 0.09375 0.484375 0.09375q0.234375 0 0.609375 -0.0625zm6.7890625 -1.78125l1.390625 0.1875q-0.234375 1.421875 -1.171875 2.234375q-0.921875 0.8125 -2.28125 0.8125q-1.703125 0 -2.75 -1.109375q-1.03125 -1.125 -1.03125 -3.203125q0 -1.34375 0.4375 -2.34375q0.453125 -1.015625 1.359375 -1.515625q0.921875 -0.5 1.984375 -0.5q1.359375 0 2.21875 0.6875q0.859375 0.671875 1.09375 1.9375l-1.359375 0.203125q-0.203125 -0.828125 -0.703125 -1.25q-0.484375 -0.421875 -1.1875 -0.421875q-1.0625 0 -1.734375 0.765625q-0.65625 0.75 -0.65625 2.40625q0 1.671875 0.640625 2.4375q0.640625 0.75 1.671875 0.75q0.828125 0 1.375 -0.5q0.5625 -0.515625 0.703125 -1.578125zm2.59375 3.046875l0 -11.453125l1.40625 0l0 4.109375q0.984375 -1.140625 2.484375 -1.140625q0.921875 0 1.59375 0.359375q0.6875 0.359375 0.96875 1.0q0.296875 0.640625 0.296875 1.859375l0 5.265625l-1.40625 0l0 -5.265625q0 -1.046875 -0.453125 -1.53125q-0.453125 -0.484375 -1.296875 -0.484375q-0.625 0 -1.171875 0.328125q-0.546875 0.328125 -0.78125 0.890625q-0.234375 0.546875 -0.234375 1.515625l0 4.546875l-1.40625 0z" fill-rule="nonzero"/><path fill="#d9d2e9" d="m445.7034 396.70575l177.16537 0l0 84.62991l-177.16537 0z" fill-rule="evenodd"/><path fill="#351c75" d="m463.4534 433.42758l1.515625 0l0 6.609375q0 1.734375 -0.390625 2.75q-0.390625 1.015625 -1.40625 1.65625q-1.015625 0.640625 -2.671875 0.640625q-1.609375 0 -2.640625 -0.5625q-1.015625 -0.5625 -1.453125 -1.609375q-0.4375 -1.046875 -0.4375 -2.875l0 -6.609375l1.515625 0l0 6.609375q0 1.484375 0.265625 2.203125q0.28125 0.703125 0.953125 1.09375q0.6875 0.375 1.65625 0.375q1.671875 0 2.375 -0.75q0.71875 -0.765625 0.71875 -2.921875l0 -6.609375zm3.8671875 14.640625l0 -11.484375l1.28125 0l0 1.078125q0.453125 -0.640625 1.015625 -0.953125q0.578125 -0.3125 1.390625 -0.3125q1.0625 0 1.875 0.546875q0.8125 0.546875 1.21875 1.546875q0.421875 0.984375 0.421875 2.171875q0 1.28125 -0.46875 2.296875q-0.453125 1.015625 -1.328125 1.5625q-0.859375 0.546875 -1.828125 0.546875q-0.703125 0 -1.265625 -0.296875q-0.546875 -0.296875 -0.90625 -0.75l0 4.046875l-1.40625 0zm1.265625 -7.296875q0 1.609375 0.640625 2.375q0.65625 0.765625 1.578125 0.765625q0.9375 0 1.609375 -0.796875q0.671875 -0.796875 0.671875 -2.453125q0 -1.59375 -0.65625 -2.375q-0.65625 -0.796875 -1.5625 -0.796875q-0.890625 0 -1.59375 0.84375q-0.6875 0.84375 -0.6875 2.4375zm13.0078125 4.109375l0 -1.046875q-0.78125 1.234375 -2.3125 1.234375q-1.0 0 -1.828125 -0.546875q-0.828125 -0.546875 -1.296875 -1.53125q-0.453125 -0.984375 -0.453125 -2.25q0 -1.25 0.40625 -2.25q0.421875 -1.015625 1.25 -1.546875q0.828125 -0.546875 1.859375 -0.546875q0.75 0 1.328125 0.3125q0.59375 0.3125 0.953125 0.828125l0 -4.109375l1.40625 0l0 11.453125l-1.3125 0zm-4.4375 -4.140625q0 1.59375 0.671875 2.390625q0.671875 0.78125 1.578125 0.78125q0.921875 0 1.5625 -0.75q0.65625 -0.765625 0.65625 -2.3125q0 -1.703125 -0.65625 -2.5q-0.65625 -0.796875 -1.625 -0.796875q-0.9375 0 -1.5625 0.765625q-0.625 0.765625 -0.625 2.421875zm13.3671875 3.109375q-0.78125 0.671875 -1.5 0.953125q-0.71875 0.265625 -1.546875 0.265625q-1.375 0 -2.109375 -0.671875q-0.734375 -0.671875 -0.734375 -1.703125q0 -0.609375 0.28125 -1.109375q0.28125 -0.515625 0.71875 -0.8125q0.453125 -0.3125 1.015625 -0.46875q0.421875 -0.109375 1.25 -0.203125q1.703125 -0.203125 2.515625 -0.484375q0 -0.296875 0 -0.375q0 -0.859375 -0.390625 -1.203125q-0.546875 -0.484375 -1.609375 -0.484375q-0.984375 0 -1.46875 0.359375q-0.46875 0.34375 -0.6875 1.21875l-1.375 -0.1875q0.1875 -0.875 0.609375 -1.421875q0.4375 -0.546875 1.25 -0.828125q0.8125 -0.296875 1.875 -0.296875q1.0625 0 1.71875 0.25q0.671875 0.25 0.984375 0.625q0.3125 0.375 0.4375 0.953125q0.078125 0.359375 0.078125 1.296875l0 1.875q0 1.96875 0.078125 2.484375q0.09375 0.515625 0.359375 1.0l-1.46875 0q-0.21875 -0.4375 -0.28125 -1.03125zm-0.109375 -3.140625q-0.765625 0.3125 -2.296875 0.53125q-0.875 0.125 -1.234375 0.28125q-0.359375 0.15625 -0.5625 0.46875q-0.1875 0.296875 -0.1875 0.65625q0 0.5625 0.421875 0.9375q0.4375 0.375 1.25 0.375q0.8125 0 1.4375 -0.34375q0.640625 -0.359375 0.9375 -0.984375q0.234375 -0.46875 0.234375 -1.40625l0 -0.515625zm6.6640625 2.90625l0.203125 1.25q-0.59375 0.125 -1.0625 0.125q-0.765625 0 -1.1875 -0.234375q-0.421875 -0.25 -0.59375 -0.640625q-0.171875 -0.40625 -0.171875 -1.671875l0 -4.765625l-1.03125 0l0 -1.09375l1.03125 0l0 -2.0625l1.40625 -0.84375l0 2.90625l1.40625 0l0 1.09375l-1.40625 0l0 4.84375q0 0.609375 0.0625 0.78125q0.078125 0.171875 0.25 0.28125q0.171875 0.09375 0.484375 0.09375q0.234375 0 0.609375 -0.0625zm7.0546875 -1.40625l1.453125 0.171875q-0.34375 1.28125 -1.28125 1.984375q-0.921875 0.703125 -2.359375 0.703125q-1.828125 0 -2.890625 -1.125q-1.0625 -1.125 -1.0625 -3.140625q0 -2.09375 1.078125 -3.25q1.078125 -1.15625 2.796875 -1.15625q1.65625 0 2.703125 1.140625q1.0625 1.125 1.0625 3.171875q0 0.125 0 0.375l-6.1875 0q0.078125 1.375 0.765625 2.109375q0.703125 0.71875 1.734375 0.71875q0.78125 0 1.328125 -0.40625q0.546875 -0.40625 0.859375 -1.296875zm-4.609375 -2.28125l4.625 0q-0.09375 -1.046875 -0.53125 -1.5625q-0.671875 -0.8125 -1.734375 -0.8125q-0.96875 0 -1.640625 0.65625q-0.65625 0.640625 -0.71875 1.71875zm11.71875 2.46875l1.3906555 -0.21875q0.109375 0.84375 0.640625 1.296875q0.546875 0.4375 1.5 0.4375q0.96875 0 1.4375 -0.390625q0.46875 -0.40625 0.46875 -0.9375q0 -0.46875 -0.40625 -0.75q-0.296875 -0.1875 -1.4375 -0.46875q-1.546875 -0.390625 -2.15625 -0.671875q-0.59375 -0.296875 -0.9062805 -0.796875q-0.296875 -0.5 -0.296875 -1.109375q0 -0.5625 0.25 -1.03125q0.25 -0.46875 0.6875305 -0.78125q0.328125 -0.25 0.890625 -0.40625q0.578125 -0.171875 1.21875 -0.171875q0.984375 0 1.71875 0.28125q0.734375 0.28125 1.078125 0.765625q0.359375 0.46875 0.5 1.28125l-1.375 0.1875q-0.09375 -0.640625 -0.546875 -1.0q-0.453125 -0.359375 -1.265625 -0.359375q-0.96875 0 -1.390625 0.328125q-0.40625 0.3125 -0.40625 0.734375q0 0.28125 0.171875 0.5q0.171875 0.21875 0.53125 0.375q0.21875 0.078125 1.25 0.359375q1.484375 0.390625 2.078125 0.65625q0.59375 0.25 0.921875 0.734375q0.34375 0.484375 0.34375 1.203125q0 0.703125 -0.421875 1.328125q-0.40625 0.609375 -1.1875 0.953125q-0.765625 0.34375 -1.734375 0.34375q-1.625 0 -2.46875 -0.671875q-0.8437805 -0.671875 -1.0781555 -2.0zm11.6250305 1.21875l0.203125 1.25q-0.59375 0.125 -1.0625 0.125q-0.765625 0 -1.1875 -0.234375q-0.421875 -0.25 -0.59375 -0.640625q-0.171875 -0.40625 -0.171875 -1.671875l0 -4.765625l-1.03125 0l0 -1.09375l1.03125 0l0 -2.0625l1.40625 -0.84375l0 2.90625l1.40625 0l0 1.09375l-1.40625 0l0 4.84375q0 0.609375 0.0625 0.78125q0.078125 0.171875 0.25 0.28125q0.171875 0.09375 0.484375 0.09375q0.234375 0 0.609375 -0.0625zm6.7890625 0.234375q-0.78125 0.671875 -1.5 0.953125q-0.71875 0.265625 -1.546875 0.265625q-1.375 0 -2.109375 -0.671875q-0.734375 -0.671875 -0.734375 -1.703125q0 -0.609375 0.28125 -1.109375q0.28125 -0.515625 0.71875 -0.8125q0.453125 -0.3125 1.015625 -0.46875q0.421875 -0.109375 1.25 -0.203125q1.703125 -0.203125 2.515625 -0.484375q0 -0.296875 0 -0.375q0 -0.859375 -0.390625 -1.203125q-0.546875 -0.484375 -1.609375 -0.484375q-0.984375 0 -1.46875 0.359375q-0.46875 0.34375 -0.6875 1.21875l-1.375 -0.1875q0.1875 -0.875 0.609375 -1.421875q0.4375 -0.546875 1.25 -0.828125q0.8125 -0.296875 1.875 -0.296875q1.0625 0 1.71875 0.25q0.671875 0.25 0.984375 0.625q0.3125 0.375 0.4375 0.953125q0.078125 0.359375 0.078125 1.296875l0 1.875q0 1.96875 0.078125 2.484375q0.09375 0.515625 0.359375 1.0l-1.46875 0q-0.21875 -0.4375 -0.28125 -1.03125zm-0.109375 -3.140625q-0.765625 0.3125 -2.296875 0.53125q-0.875 0.125 -1.234375 0.28125q-0.359375 0.15625 -0.5625 0.46875q-0.1875 0.296875 -0.1875 0.65625q0 0.5625 0.421875 0.9375q0.4375 0.375 1.25 0.375q0.8125 0 1.4375 -0.34375q0.640625 -0.359375 0.9375 -0.984375q0.234375 -0.46875 0.234375 -1.40625l0 -0.515625zm6.6640625 2.90625l0.203125 1.25q-0.59375 0.125 -1.0625 0.125q-0.765625 0 -1.1875 -0.234375q-0.421875 -0.25 -0.59375 -0.640625q-0.171875 -0.40625 -0.171875 -1.671875l0 -4.765625l-1.03125 0l0 -1.09375l1.03125 0l0 -2.0625l1.40625 -0.84375l0 2.90625l1.40625 0l0 1.09375l-1.40625 0l0 4.84375q0 0.609375 0.0625 0.78125q0.078125 0.171875 0.25 0.28125q0.171875 0.09375 0.484375 0.09375q0.234375 0 0.609375 -0.0625zm6.8203125 1.265625l0 -1.21875q-0.96875 1.40625 -2.640625 1.40625q-0.734375 0 -1.375 -0.28125q-0.625 -0.28125 -0.9375 -0.703125q-0.3125 -0.4375 -0.4375 -1.046875q-0.078125 -0.421875 -0.078125 -1.3125l0 -5.140625l1.40625 0l0 4.59375q0 1.109375 0.078125 1.484375q0.140625 0.5625 0.5625 0.875q0.4375 0.3125 1.0625 0.3125q0.640625 0 1.1875 -0.3125q0.5625 -0.328125 0.78125 -0.890625q0.234375 -0.5625 0.234375 -1.625l0 -4.4375l1.40625 0l0 8.296875l-1.25 0zm2.8984375 -2.484375l1.390625 -0.21875q0.109375 0.84375 0.640625 1.296875q0.546875 0.4375 1.5 0.4375q0.96875 0 1.4375 -0.390625q0.46875 -0.40625 0.46875 -0.9375q0 -0.46875 -0.40625 -0.75q-0.296875 -0.1875 -1.4375 -0.46875q-1.546875 -0.390625 -2.15625 -0.671875q-0.59375 -0.296875 -0.90625 -0.796875q-0.296875 -0.5 -0.296875 -1.109375q0 -0.5625 0.25 -1.03125q0.25 -0.46875 0.6875 -0.78125q0.328125 -0.25 0.890625 -0.40625q0.578125 -0.171875 1.21875 -0.171875q0.984375 0 1.71875 0.28125q0.734375 0.28125 1.078125 0.765625q0.359375 0.46875 0.5 1.28125l-1.375 0.1875q-0.09375 -0.640625 -0.546875 -1.0q-0.453125 -0.359375 -1.265625 -0.359375q-0.96875 0 -1.390625 0.328125q-0.40625 0.3125 -0.40625 0.734375q0 0.28125 0.171875 0.5q0.171875 0.21875 0.53125 0.375q0.21875 0.078125 1.25 0.359375q1.484375 0.390625 2.078125 0.65625q0.59375 0.25 0.921875 0.734375q0.34375 0.484375 0.34375 1.203125q0 0.703125 -0.421875 1.328125q-0.40625 0.609375 -1.1875 0.953125q-0.765625 0.34375 -1.734375 0.34375q-1.625 0 -2.46875 -0.671875q-0.84375 -0.671875 -1.078125 -2.0zm14.234375 -0.1875l1.453125 0.171875q-0.34375 1.28125 -1.28125 1.984375q-0.921875 0.703125 -2.359375 0.703125q-1.828125 0 -2.890625 -1.125q-1.0625 -1.125 -1.0625 -3.140625q0 -2.09375 1.078125 -3.25q1.078125 -1.15625 2.796875 -1.15625q1.65625 0 2.703125 1.140625q1.0625 1.125 1.0625 3.171875q0 0.125 0 0.375l-6.1875 0q0.078125 1.375 0.765625 2.109375q0.703125 0.71875 1.734375 0.71875q0.78125 0 1.328125 -0.40625q0.546875 -0.40625 0.859375 -1.296875zm-4.609375 -2.28125l4.625 0q-0.09375 -1.046875 -0.53125 -1.5625q-0.671875 -0.8125 -1.734375 -0.8125q-0.96875 0 -1.640625 0.65625q-0.65625 0.640625 -0.71875 1.71875zm7.2734375 2.46875l1.390625 -0.21875q0.109375 0.84375 0.640625 1.296875q0.546875 0.4375 1.5 0.4375q0.96875 0 1.4375 -0.390625q0.46875 -0.40625 0.46875 -0.9375q0 -0.46875 -0.40625 -0.75q-0.296875 -0.1875 -1.4375 -0.46875q-1.546875 -0.390625 -2.15625 -0.671875q-0.59375 -0.296875 -0.90625 -0.796875q-0.296875 -0.5 -0.296875 -1.109375q0 -0.5625 0.25 -1.03125q0.25 -0.46875 0.6875 -0.78125q0.328125 -0.25 0.890625 -0.40625q0.578125 -0.171875 1.21875 -0.171875q0.984375 0 1.71875 0.28125q0.734375 0.28125 1.078125 0.765625q0.359375 0.46875 0.5 1.28125l-1.375 0.1875q-0.09375 -0.640625 -0.546875 -1.0q-0.453125 -0.359375 -1.265625 -0.359375q-0.96875 0 -1.390625 0.328125q-0.40625 0.3125 -0.40625 0.734375q0 0.28125 0.171875 0.5q0.171875 0.21875 0.53125 0.375q0.21875 0.078125 1.25 0.359375q1.484375 0.390625 2.078125 0.65625q0.59375 0.25 0.921875 0.734375q0.34375 0.484375 0.34375 1.203125q0 0.703125 -0.421875 1.328125q-0.40625 0.609375 -1.1875 0.953125q-0.765625 0.34375 -1.734375 0.34375q-1.625 0 -2.46875 -0.671875q-0.84375 -0.671875 -1.078125 -2.0z" fill-rule="nonzero"/><path fill="#b6d7a8" d="m661.4055 323.1299l205.85828 0l0 88.629944l-205.85828 0z" fill-rule="evenodd"/><path fill="#134f5c" d="m671.6399 354.30487l0 -11.453125l3.953125 0q1.328125 0 2.03125 0.15625q0.984375 0.234375 1.6875 0.828125q0.90625 0.765625 1.34375 1.953125q0.453125 1.1875 0.453125 2.71875q0 1.3125 -0.3125 2.328125q-0.296875 1.0 -0.78125 1.65625q-0.46875 0.65625 -1.03125 1.046875q-0.5625 0.375 -1.375 0.578125q-0.796875 0.1875 -1.828125 0.1875l-4.140625 0zm1.515625 -1.359375l2.453125 0q1.125 0 1.765625 -0.203125q0.65625 -0.21875 1.03125 -0.59375q0.546875 -0.546875 0.84375 -1.453125q0.296875 -0.90625 0.296875 -2.203125q0 -1.796875 -0.59375 -2.765625q-0.578125 -0.96875 -1.421875 -1.296875q-0.609375 -0.234375 -1.96875 -0.234375l-2.40625 0l0 8.75zm9.8671875 -8.484375l0 -1.609375l1.40625 0l0 1.609375l-1.40625 0zm0 9.84375l0 -8.296875l1.40625 0l0 8.296875l-1.40625 0zm2.9921875 -2.484375l1.390625 -0.21875q0.109375 0.84375 0.640625 1.296875q0.546875 0.4375 1.5 0.4375q0.96875 0 1.4375 -0.390625q0.46875 -0.40625 0.46875 -0.9375q0 -0.46875 -0.40625 -0.75q-0.296875 -0.1875 -1.4375 -0.46875q-1.546875 -0.390625 -2.15625 -0.671875q-0.59375 -0.296875 -0.90625 -0.796875q-0.296875 -0.5 -0.296875 -1.109375q0 -0.5625 0.25 -1.03125q0.25 -0.46875 0.6875 -0.78125q0.328125 -0.25 0.890625 -0.40625q0.578125 -0.171875 1.21875 -0.171875q0.984375 0 1.71875 0.28125q0.734375 0.28125 1.078125 0.765625q0.359375 0.46875 0.5 1.28125l-1.375 0.1875q-0.09375 -0.640625 -0.546875 -1.0q-0.453125 -0.359375 -1.265625 -0.359375q-0.96875 0 -1.390625 0.328125q-0.40625 0.3125 -0.40625 0.734375q0 0.28125 0.171875 0.5q0.171875 0.21875 0.53125 0.375q0.21875 0.078125 1.25 0.359375q1.484375 0.390625 2.078125 0.65625q0.59375 0.25 0.921875 0.734375q0.34375 0.484375 0.34375 1.203125q0 0.703125 -0.421875 1.328125q-0.40625 0.609375 -1.1875 0.953125q-0.765625 0.34375 -1.734375 0.34375q-1.625 0 -2.46875 -0.671875q-0.84375 -0.671875 -1.078125 -2.0zm13.96875 -0.5625l1.390625 0.1875q-0.234375 1.421875 -1.171875 2.234375q-0.921875 0.8125 -2.28125 0.8125q-1.703125 0 -2.75 -1.109375q-1.03125 -1.125 -1.03125 -3.203125q0 -1.34375 0.4375 -2.34375q0.453125 -1.015625 1.359375 -1.515625q0.921875 -0.5 1.984375 -0.5q1.359375 0 2.21875 0.6875q0.859375 0.671875 1.09375 1.9375l-1.359375 0.203125q-0.203125 -0.828125 -0.703125 -1.25q-0.484375 -0.421875 -1.1875 -0.421875q-1.0625 0 -1.734375 0.765625q-0.65625 0.75 -0.65625 2.40625q0 1.671875 0.640625 2.4375q0.640625 0.75 1.671875 0.75q0.828125 0 1.375 -0.5q0.5625 -0.515625 0.703125 -1.578125zm8.0 2.015625q-0.78125 0.671875 -1.5 0.953125q-0.71875 0.265625 -1.546875 0.265625q-1.375 0 -2.109375 -0.671875q-0.734375 -0.671875 -0.734375 -1.703125q0 -0.609375 0.28125 -1.109375q0.28125 -0.515625 0.71875 -0.8125q0.453125 -0.3125 1.015625 -0.46875q0.421875 -0.109375 1.25 -0.203125q1.703125 -0.203125 2.515625 -0.484375q0 -0.296875 0 -0.375q0 -0.859375 -0.390625 -1.203125q-0.546875 -0.484375 -1.609375 -0.484375q-0.984375 0 -1.46875 0.359375q-0.46875 0.34375 -0.6875 1.21875l-1.375 -0.1875q0.1875 -0.875 0.609375 -1.421875q0.4375 -0.546875 1.25 -0.828125q0.8125 -0.296875 1.875 -0.296875q1.0625 0 1.71875 0.25q0.671875 0.25 0.984375 0.625q0.3125 0.375 0.4375 0.953125q0.078125 0.359375 0.078125 1.296875l0 1.875q0 1.96875 0.078125 2.484375q0.09375 0.515625 0.359375 1.0l-1.46875 0q-0.21875 -0.4375 -0.28125 -1.03125zm-0.109375 -3.140625q-0.765625 0.3125 -2.296875 0.53125q-0.875 0.125 -1.234375 0.28125q-0.359375 0.15625 -0.5625 0.46875q-0.1875 0.296875 -0.1875 0.65625q0 0.5625 0.421875 0.9375q0.4375 0.375 1.25 0.375q0.8125 0 1.4375 -0.34375q0.640625 -0.359375 0.9375 -0.984375q0.234375 -0.46875 0.234375 -1.40625l0 -0.515625zm3.5859375 4.171875l0 -8.296875l1.265625 0l0 1.25q0.484375 -0.875 0.890625 -1.15625q0.40625 -0.28125 0.90625 -0.28125q0.703125 0 1.4375 0.453125l-0.484375 1.296875q-0.515625 -0.296875 -1.03125 -0.296875q-0.453125 0 -0.828125 0.28125q-0.359375 0.265625 -0.515625 0.765625q-0.234375 0.75 -0.234375 1.640625l0 4.34375l-1.40625 0zm10.71875 0l0 -1.046875q-0.78125 1.234375 -2.3125 1.234375q-1.0 0 -1.828125 -0.546875q-0.828125 -0.546875 -1.296875 -1.53125q-0.453125 -0.984375 -0.453125 -2.25q0 -1.25 0.40625 -2.25q0.421875 -1.015625 1.25 -1.546875q0.828125 -0.546875 1.859375 -0.546875q0.75 0 1.328125 0.3125q0.59375 0.3125 0.953125 0.828125l0 -4.109375l1.40625 0l0 11.453125l-1.3125 0zm-4.4375 -4.140625q0 1.59375 0.671875 2.390625q0.671875 0.78125 1.578125 0.78125q0.921875 0 1.5625 -0.75q0.65625 -0.765625 0.65625 -2.3125q0 -1.703125 -0.65625 -2.5q-0.65625 -0.796875 -1.625 -0.796875q-0.9375 0 -1.5625 0.765625q-0.625 0.765625 -0.625 2.421875zm12.40625 -5.703125l0 -1.609375l1.40625 0l0 1.609375l-1.40625 0zm0 9.84375l0 -8.296875l1.40625 0l0 8.296875l-1.40625 0zm3.8828125 0l0 -7.203125l-1.234375 0l0 -1.09375l1.234375 0l0 -0.890625q0 -0.828125 0.15625 -1.234375q0.203125 -0.546875 0.703125 -0.890625q0.515625 -0.34375 1.4375 -0.34375q0.59375 0 1.3125 0.140625l-0.203125 1.234375q-0.4375 -0.078125 -0.828125 -0.078125q-0.640625 0 -0.90625 0.28125q-0.265625 0.265625 -0.265625 1.015625l0 0.765625l1.609375 0l0 1.09375l-1.609375 0l0 7.203125l-1.40625 0zm4.5078125 -6.703125l0 -1.59375l1.59375 0l0 1.59375l-1.59375 0zm0 6.703125l0 -1.609375l1.59375 0l0 1.609375l-1.59375 0z" fill-rule="nonzero"/><path fill="#134f5c" d="m689.593 369.86737l0 -1.421875l4.3125 0l0 1.421875l-4.3125 0z" fill-rule="nonzero"/><path fill="#134f5c" d="m726.9055 361.92987l-1.390625 0l-0.03125 7.703125q-0.015625 0.5 -0.171875 0.96875q-0.140625 0.46875 -0.421875 0.828125q-0.28125 0.375 -0.703125 0.59375q-0.421875 0.203125 -0.984375 0.203125q-0.546875 0 -0.984375 -0.21875q-0.421875 -0.21875 -0.703125 -0.578125q-0.28125 -0.359375 -0.4375 -0.828125q-0.15625 -0.46875 -0.15625 -0.96875l-0.03125 -7.703125l-1.375 0l-0.015625 7.703125q0 0.796875 0.265625 1.5q0.28125 0.6875 0.765625 1.203125q0.484375 0.53125 1.15625 0.828125q0.6875 0.296875 1.515625 0.296875q0.8125 0 1.484375 -0.296875q0.6875 -0.3125 1.1875 -0.828125q0.484375 -0.515625 0.765625 -1.203125q0.28125 -0.703125 0.28125 -1.5l-0.015625 -7.703125zm9.5859375 11.375l0 -11.375l-1.453125 0l-0.03125 8.484375l-4.40625 -8.484375l-1.46875 0l0 11.375l1.453125 0l0.03125 -8.5l4.40625 8.5l1.46875 0zm5.2109375 -5.28125l3.4375 5.28125l1.75 0l-4.234375 -6.40625l3.96875 -4.96875l-1.75 0l-3.34375 4.171875l-1.09375 1.375l0 -5.546875l-1.484375 0l0 11.375l1.484375 0l0 -3.84375l1.265625 -1.4375zm13.9921875 5.28125l0 -11.375l-1.453125 0l-0.03125 8.484375l-4.40625 -8.484375l-1.46875 0l0 11.375l1.453125 0l0.03125 -8.5l4.40625 8.5l1.46875 0zm9.8828125 -5.03125l0 -1.296875q-0.015625 -0.609375 -0.109375 -1.234375q-0.09375 -0.625 -0.296875 -1.203125q-0.21875 -0.578125 -0.53125 -1.078125q-0.3125 -0.515625 -0.75 -0.890625q-0.4375 -0.375 -1.015625 -0.578125q-0.5625 -0.21875 -1.265625 -0.21875q-0.703125 0 -1.28125 0.21875q-0.5625 0.203125 -1.0 0.578125q-0.4375 0.390625 -0.75 0.890625q-0.3125 0.5 -0.515625 1.078125q-0.21875 0.578125 -0.3125 1.203125q-0.09375 0.625 -0.109375 1.234375l0 1.296875q0.015625 0.609375 0.109375 1.234375q0.109375 0.609375 0.3125 1.1875q0.203125 0.578125 0.515625 1.078125q0.328125 0.5 0.765625 0.875q0.4375 0.375 1.0 0.59375q0.578125 0.21875 1.28125 0.21875q0.703125 0 1.265625 -0.21875q0.5625 -0.21875 1.0 -0.59375q0.4375 -0.375 0.75 -0.875q0.328125 -0.5 0.53125 -1.078125q0.203125 -0.578125 0.296875 -1.1875q0.09375 -0.625 0.109375 -1.234375zm-1.4375 -1.3125l0 1.3125q0 0.40625 -0.046875 0.859375q-0.046875 0.4375 -0.15625 0.859375q-0.109375 0.4375 -0.296875 0.84375q-0.1875 0.390625 -0.453125 0.6875q-0.28125 0.296875 -0.671875 0.484375q-0.390625 0.171875 -0.890625 0.171875q-0.515625 0 -0.90625 -0.171875q-0.375 -0.1875 -0.65625 -0.484375q-0.28125 -0.296875 -0.46875 -0.6875q-0.1875 -0.40625 -0.296875 -0.84375q-0.125 -0.4375 -0.171875 -0.875q-0.046875 -0.453125 -0.0625 -0.84375l0 -1.3125q0.015625 -0.40625 0.0625 -0.84375q0.046875 -0.4375 0.171875 -0.875q0.109375 -0.4375 0.296875 -0.828125q0.1875 -0.390625 0.46875 -0.703125q0.28125 -0.296875 0.65625 -0.46875q0.390625 -0.1875 0.890625 -0.1875q0.5 0 0.875 0.1875q0.390625 0.171875 0.671875 0.46875q0.28125 0.296875 0.46875 0.703125q0.1875 0.390625 0.3125 0.8125q0.109375 0.4375 0.15625 0.890625q0.046875 0.4375 0.046875 0.84375zm4.2265625 6.34375l1.484375 0l1.390625 -8.09375l0.09375 -0.484375l0.078125 0.484375l1.375 8.09375l1.484375 0l1.375 -11.375l-1.359375 0l-0.828125 7.828125l-0.046875 0.46875l-0.078125 -0.46875l-1.390625 -7.828125l-1.25 0l-1.375 7.828125l-0.09375 0.46875l-0.046875 -0.453125l-0.8125 -7.84375l-1.375 0l1.375 11.375zm16.132812 0l0 -11.375l-1.453125 0l-0.03125 8.484375l-4.40625 -8.484375l-1.46875 0l0 11.375l1.453125 0l0.03125 -8.5l4.40625 8.5l1.46875 0z" fill-rule="nonzero"/><path fill="#134f5c" d="m790.56177 370.8205l1.390625 -0.21875q0.109375 0.84375 0.640625 1.296875q0.546875 0.4375 1.5 0.4375q0.96875 0 1.4375 -0.390625q0.46875 -0.40625 0.46875 -0.9375q0 -0.46875 -0.40625 -0.75q-0.296875 -0.1875 -1.4375 -0.46875q-1.546875 -0.390625 -2.15625 -0.671875q-0.59375 -0.296875 -0.90625 -0.796875q-0.296875 -0.5 -0.296875 -1.109375q0 -0.5625 0.25 -1.03125q0.25 -0.46875 0.6875 -0.78125q0.328125 -0.25 0.890625 -0.40625q0.578125 -0.171875 1.21875 -0.171875q0.984375 0 1.71875 0.28125q0.734375 0.28125 1.078125 0.765625q0.359375 0.46875 0.5 1.28125l-1.375 0.1875q-0.09375 -0.640625 -0.546875 -1.0q-0.453125 -0.359375 -1.265625 -0.359375q-0.96875 0 -1.390625 0.328125q-0.40625 0.3125 -0.40625 0.734375q0 0.28125 0.171875 0.5q0.171875 0.21875 0.53125 0.375q0.21875 0.078125 1.25 0.359375q1.484375 0.390625 2.078125 0.65625q0.59375 0.25 0.921875 0.734375q0.34375 0.484375 0.34375 1.203125q0 0.703125 -0.421875 1.328125q-0.40625 0.609375 -1.1875 0.953125q-0.765625 0.34375 -1.734375 0.34375q-1.625 0 -2.46875 -0.671875q-0.84375 -0.671875 -1.078125 -2.0zm11.625 1.21875l0.203125 1.25q-0.59375 0.125 -1.0625 0.125q-0.765625 0 -1.1875 -0.234375q-0.421875 -0.25 -0.59375 -0.640625q-0.171875 -0.40625 -0.171875 -1.671875l0 -4.765625l-1.03125 0l0 -1.09375l1.03125 0l0 -2.0625l1.40625 -0.84375l0 2.90625l1.40625 0l0 1.09375l-1.40625 0l0 4.84375q0 0.609375 0.0625 0.78125q0.078125 0.171875 0.25 0.28125q0.171875 0.09375 0.484375 0.09375q0.234375 0 0.609375 -0.0625zm6.7890625 0.234375q-0.78125 0.671875 -1.5 0.953125q-0.71875 0.265625 -1.546875 0.265625q-1.375 0 -2.109375 -0.671875q-0.734375 -0.671875 -0.734375 -1.703125q0 -0.609375 0.28125 -1.109375q0.28125 -0.515625 0.71875 -0.8125q0.453125 -0.3125 1.015625 -0.46875q0.421875 -0.109375 1.25 -0.203125q1.703125 -0.203125 2.515625 -0.484375q0 -0.296875 0 -0.375q0 -0.859375 -0.390625 -1.203125q-0.546875 -0.484375 -1.609375 -0.484375q-0.984375 0 -1.46875 0.359375q-0.46875 0.34375 -0.6875 1.21875l-1.375 -0.1875q0.1875 -0.875 0.609375 -1.421875q0.4375 -0.546875 1.25 -0.828125q0.8125 -0.296875 1.875 -0.296875q1.0625 0 1.71875 0.25q0.671875 0.25 0.984375 0.625q0.3125 0.375 0.4375 0.953125q0.078125 0.359375 0.078125 1.296875l0 1.875q0 1.96875 0.078125 2.484375q0.09375 0.515625 0.359375 1.0l-1.46875 0q-0.21875 -0.4375 -0.28125 -1.03125zm-0.109375 -3.140625q-0.765625 0.3125 -2.296875 0.53125q-0.875 0.125 -1.234375 0.28125q-0.359375 0.15625 -0.5625 0.46875q-0.1875 0.296875 -0.1875 0.65625q0 0.5625 0.421875 0.9375q0.4375 0.375 1.25 0.375q0.8125 0 1.4375 -0.34375q0.640625 -0.359375 0.9375 -0.984375q0.234375 -0.46875 0.234375 -1.40625l0 -0.515625zm6.6640625 2.90625l0.203125 1.25q-0.59375 0.125 -1.0625 0.125q-0.765625 0 -1.1875 -0.234375q-0.421875 -0.25 -0.59375 -0.640625q-0.171875 -0.40625 -0.171875 -1.671875l0 -4.765625l-1.03125 0l0 -1.09375l1.03125 0l0 -2.0625l1.40625 -0.84375l0 2.90625l1.40625 0l0 1.09375l-1.40625 0l0 4.84375q0 0.609375 0.0625 0.78125q0.078125 0.171875 0.25 0.28125q0.171875 0.09375 0.484375 0.09375q0.234375 0 0.609375 -0.0625zm7.0546875 -1.40625l1.453125 0.171875q-0.34375 1.28125 -1.28125 1.984375q-0.921875 0.703125 -2.359375 0.703125q-1.828125 0 -2.890625 -1.125q-1.0625 -1.125 -1.0625 -3.140625q0 -2.09375 1.078125 -3.25q1.078125 -1.15625 2.796875 -1.15625q1.65625 0 2.703125 1.140625q1.0625 1.125 1.0625 3.171875q0 0.125 0 0.375l-6.1875 0q0.078125 1.375 0.765625 2.109375q0.703125 0.71875 1.734375 0.71875q0.78125 0 1.328125 -0.40625q0.546875 -0.40625 0.859375 -1.296875zm-4.609375 -2.28125l4.625 0q-0.09375 -1.046875 -0.53125 -1.5625q-0.671875 -0.8125 -1.734375 -0.8125q-0.96875 0 -1.640625 0.65625q-0.65625 0.640625 -0.71875 1.71875z" fill-rule="nonzero"/><path fill="#134f5c" d="m689.593 388.86737l0 -1.421875l4.3125 0l0 1.421875l-4.3125 0z" fill-rule="nonzero"/><path fill="#134f5c" d="m718.37427 392.30487l4.40625 -11.453125l1.640625 0l4.6875 11.453125l-1.734375 0l-1.328125 -3.46875l-4.796875 0l-1.25 3.46875l-1.625 0zm3.3125 -4.703125l3.890625 0l-1.203125 -3.171875q-0.546875 -1.453125 -0.8125 -2.375q-0.21875 1.09375 -0.609375 2.1875l-1.265625 3.359375zm8.453125 4.703125l0 -8.296875l1.265625 0l0 1.171875q0.90625 -1.359375 2.640625 -1.359375q0.75 0 1.375 0.265625q0.625 0.265625 0.9375 0.703125q0.3125 0.4375 0.4375 1.046875q0.078125 0.390625 0.078125 1.359375l0 5.109375l-1.40625 0l0 -5.046875q0 -0.859375 -0.171875 -1.28125q-0.15625 -0.4375 -0.578125 -0.6875q-0.40625 -0.25 -0.96875 -0.25q-0.90625 0 -1.5625 0.578125q-0.640625 0.5625 -0.640625 2.15625l0 4.53125l-1.40625 0zm8.3671875 -4.15625q0 -2.296875 1.28125 -3.40625q1.078125 -0.921875 2.609375 -0.921875q1.71875 0 2.796875 1.125q1.09375 1.109375 1.09375 3.09375q0 1.59375 -0.484375 2.515625q-0.484375 0.921875 -1.40625 1.4375q-0.90625 0.5 -2.0 0.5q-1.734375 0 -2.8125 -1.109375q-1.078125 -1.125 -1.078125 -3.234375zm1.453125 0q0 1.59375 0.6875 2.390625q0.703125 0.796875 1.75 0.796875q1.046875 0 1.734375 -0.796875q0.703125 -0.796875 0.703125 -2.4375q0 -1.53125 -0.703125 -2.328125q-0.6875 -0.796875 -1.734375 -0.796875q-1.046875 0 -1.75 0.796875q-0.6875 0.78125 -0.6875 2.375zm7.9765625 4.15625l0 -8.296875l1.25 0l0 1.15625q0.390625 -0.609375 1.03125 -0.96875q0.65625 -0.375 1.484375 -0.375q0.921875 0 1.515625 0.390625q0.59375 0.375 0.828125 1.0625q0.984375 -1.453125 2.5625 -1.453125q1.234375 0 1.890625 0.6875q0.671875 0.671875 0.671875 2.09375l0 5.703125l-1.390625 0l0 -5.234375q0 -0.84375 -0.140625 -1.203125q-0.140625 -0.375 -0.5 -0.59375q-0.359375 -0.234375 -0.84375 -0.234375q-0.875 0 -1.453125 0.578125q-0.578125 0.578125 -0.578125 1.859375l0 4.828125l-1.40625 0l0 -5.390625q0 -0.9375 -0.34375 -1.40625q-0.34375 -0.46875 -1.125 -0.46875q-0.59375 0 -1.09375 0.3125q-0.5 0.3125 -0.734375 0.921875q-0.21875 0.59375 -0.21875 1.71875l0 4.3125l-1.40625 0zm18.734375 -1.03125q-0.78125 0.671875 -1.5 0.953125q-0.71875 0.265625 -1.546875 0.265625q-1.375 0 -2.109375 -0.671875q-0.734375 -0.671875 -0.734375 -1.703125q0 -0.609375 0.28125 -1.109375q0.28125 -0.515625 0.71875 -0.8125q0.453125 -0.3125 1.015625 -0.46875q0.421875 -0.109375 1.25 -0.203125q1.703125 -0.203125 2.515625 -0.484375q0 -0.296875 0 -0.375q0 -0.859375 -0.390625 -1.203125q-0.546875 -0.484375 -1.609375 -0.484375q-0.984375 0 -1.46875 0.359375q-0.46875 0.34375 -0.6875 1.21875l-1.375 -0.1875q0.1875 -0.875 0.609375 -1.421875q0.4375 -0.546875 1.25 -0.828125q0.8125 -0.296875 1.875 -0.296875q1.0625 0 1.71875 0.25q0.671875 0.25 0.984375 0.625q0.3125 0.375 0.4375 0.953125q0.078125 0.359375 0.078125 1.296875l0 1.875q0 1.96875 0.078125 2.484375q0.09375 0.515625 0.359375 1.0l-1.46875 0q-0.21875 -0.4375 -0.28125 -1.03125zm-0.109375 -3.140625q-0.765625 0.3125 -2.296875 0.53125q-0.875 0.125 -1.234375 0.28125q-0.359375 0.15625 -0.5625 0.46875q-0.1875 0.296875 -0.1875 0.65625q0 0.5625 0.421875 0.9375q0.4375 0.375 1.25 0.375q0.8125 0 1.4375 -0.34375q0.640625 -0.359375 0.9375 -0.984375q0.234375 -0.46875 0.234375 -1.40625l0 -0.515625zm3.5703125 4.171875l0 -11.453125l1.40625 0l0 11.453125l-1.40625 0zm3.0546875 -4.15625q0 -2.296875 1.28125 -3.40625q1.078125 -0.921875 2.609375 -0.921875q1.71875 0 2.796875 1.125q1.09375 1.109375 1.09375 3.09375q0 1.59375 -0.484375 2.515625q-0.484375 0.921875 -1.40625 1.4375q-0.90625 0.5 -2.0 0.5q-1.734375 0 -2.8125 -1.109375q-1.078125 -1.125 -1.078125 -3.234375zm1.453125 0q0 1.59375 0.6875 2.390625q0.703125 0.796875 1.75 0.796875q1.046875 0 1.734375 -0.796875q0.703125 -0.796875 0.703125 -2.4375q0 -1.53125 -0.703125 -2.328125q-0.6875 -0.796875 -1.734375 -0.796875q-1.046875 0 -1.75 0.796875q-0.6875 0.78125 -0.6875 2.375zm13.4140625 4.15625l0 -1.21875q-0.96875 1.40625 -2.640625 1.40625q-0.734375 0 -1.375 -0.28125q-0.625 -0.28125 -0.9375 -0.703125q-0.3125 -0.4375 -0.4375 -1.046875q-0.078125 -0.421875 -0.078125 -1.3125l0 -5.140625l1.40625 0l0 4.59375q0 1.109375 0.078125 1.484375q0.140625 0.5625 0.5625 0.875q0.4375 0.3125 1.0625 0.3125q0.640625 0 1.1875 -0.3125q0.5625 -0.328125 0.78125 -0.890625q0.234375 -0.5625 0.234375 -1.625l0 -4.4375l1.40625 0l0 8.296875l-1.25 0zm2.8984375 -2.484375l1.390625 -0.21875q0.109375 0.84375 0.640625 1.296875q0.546875 0.4375 1.5 0.4375q0.96875 0 1.4375 -0.390625q0.46875 -0.40625 0.46875 -0.9375q0 -0.46875 -0.40625 -0.75q-0.296875 -0.1875 -1.4375 -0.46875q-1.546875 -0.390625 -2.15625 -0.671875q-0.59375 -0.296875 -0.90625 -0.796875q-0.296875 -0.5 -0.296875 -1.109375q0 -0.5625 0.25 -1.03125q0.25 -0.46875 0.6875 -0.78125q0.328125 -0.25 0.890625 -0.40625q0.578125 -0.171875 1.21875 -0.171875q0.984375 0 1.71875 0.28125q0.734375 0.28125 1.078125 0.765625q0.359375 0.46875 0.5 1.28125l-1.375 0.1875q-0.09375 -0.640625 -0.546875 -1.0q-0.453125 -0.359375 -1.265625 -0.359375q-0.96875 0 -1.390625 0.328125q-0.40625 0.3125 -0.40625 0.734375q0 0.28125 0.171875 0.5q0.171875 0.21875 0.53125 0.375q0.21875 0.078125 1.25 0.359375q1.484375 0.390625 2.078125 0.65625q0.59375 0.25 0.921875 0.734375q0.34375 0.484375 0.34375 1.203125q0 0.703125 -0.421875 1.328125q-0.40625 0.609375 -1.1875 0.953125q-0.765625 0.34375 -1.734375 0.34375q-1.625 0 -2.46875 -0.671875q-0.84375 -0.671875 -1.078125 -2.0z" fill-rule="nonzero"/><path fill="#d9d2e9" d="m445.7021 97.69945l177.16534 0l0 71.968506l-177.16534 0z" fill-rule="evenodd"/><path fill="#351c75" d="m456.0146 139.5437l0 -11.453125l7.734375 0l0 1.34375l-6.21875 0l0 3.546875l5.375 0l0 1.359375l-5.375 0l0 5.203125l-1.515625 0zm15.1953125 -2.671875l1.453125 0.171875q-0.34375 1.28125 -1.28125 1.984375q-0.921875 0.703125 -2.359375 0.703125q-1.828125 0 -2.890625 -1.125q-1.0625 -1.125 -1.0625 -3.140625q0 -2.09375 1.078125 -3.25q1.078125 -1.15625 2.796875 -1.15625q1.65625 0 2.703125 1.140625q1.0625 1.125 1.0625 3.171875q0 0.125 0 0.375l-6.1875 0q0.078125 1.375 0.765625 2.109375q0.703125 0.71875 1.734375 0.71875q0.78125 0 1.328125 -0.40625q0.546875 -0.40625 0.859375 -1.296875zm-4.609375 -2.28125l4.625 0q-0.09375 -1.046875 -0.53125 -1.5625q-0.671875 -0.8125 -1.734375 -0.8125q-0.96875 0 -1.640625 0.65625q-0.65625 0.640625 -0.71875 1.71875zm10.8984375 3.6875l0.203125 1.25q-0.59375 0.125 -1.0625 0.125q-0.765625 0 -1.1875 -0.234375q-0.421875 -0.25 -0.59375 -0.640625q-0.171875 -0.40625 -0.171875 -1.671875l0 -4.765625l-1.03125 0l0 -1.09375l1.03125 0l0 -2.0625l1.40625 -0.84375l0 2.90625l1.40625 0l0 1.09375l-1.40625 0l0 4.84375q0 0.609375 0.0625 0.78125q0.078125 0.171875 0.25 0.28125q0.171875 0.09375 0.484375 0.09375q0.234375 0 0.609375 -0.0625zm6.7890625 -1.78125l1.390625 0.1875q-0.234375 1.421875 -1.171875 2.234375q-0.921875 0.8125 -2.28125 0.8125q-1.703125 0 -2.75 -1.109375q-1.03125 -1.125 -1.03125 -3.203125q0 -1.34375 0.4375 -2.34375q0.453125 -1.015625 1.359375 -1.515625q0.921875 -0.5 1.984375 -0.5q1.359375 0 2.21875 0.6875q0.859375 0.671875 1.09375 1.9375l-1.359375 0.203125q-0.203125 -0.828125 -0.703125 -1.25q-0.484375 -0.421875 -1.1875 -0.421875q-1.0625 0 -1.734375 0.765625q-0.65625 0.75 -0.65625 2.40625q0 1.671875 0.640625 2.4375q0.640625 0.75 1.671875 0.75q0.828125 0 1.375 -0.5q0.5625 -0.515625 0.703125 -1.578125zm2.59375 3.046875l0 -11.453125l1.40625 0l0 4.109375q0.984375 -1.140625 2.484375 -1.140625q0.921875 0 1.59375 0.359375q0.6875 0.359375 0.96875 1.0q0.296875 0.640625 0.296875 1.859375l0 5.265625l-1.40625 0l0 -5.265625q0 -1.046875 -0.453125 -1.53125q-0.453125 -0.484375 -1.296875 -0.484375q-0.625 0 -1.171875 0.328125q-0.546875 0.328125 -0.78125 0.890625q-0.234375 0.546875 -0.234375 1.515625l0 4.546875l-1.40625 0zm12.78125 -2.484375l1.390625 -0.21875q0.109375 0.84375 0.640625 1.296875q0.546875 0.4375 1.5 0.4375q0.96875 0 1.4375 -0.390625q0.46875 -0.40625 0.46875 -0.9375q0 -0.46875 -0.40625 -0.75q-0.296875 -0.1875 -1.4375 -0.46875q-1.546875 -0.390625 -2.15625 -0.671875q-0.59375 -0.296875 -0.90625 -0.796875q-0.296875 -0.5 -0.296875 -1.109375q0 -0.5625 0.25 -1.03125q0.25 -0.46875 0.6875 -0.78125q0.328125 -0.25 0.890625 -0.40625q0.578125 -0.171875 1.21875 -0.171875q0.984375 0 1.71875 0.28125q0.734375 0.28125 1.078125 0.765625q0.359375 0.46875 0.5 1.28125l-1.375 0.1875q-0.09375 -0.640625 -0.546875 -1.0q-0.453125 -0.359375 -1.265625 -0.359375q-0.96875 0 -1.390625 0.328125q-0.40625 0.3125 -0.40625 0.734375q0 0.28125 0.171875 0.5q0.171875 0.21875 0.53125 0.375q0.21875 0.078125 1.25 0.359375q1.484375 0.390625 2.078125 0.65625q0.59375 0.25 0.921875 0.734375q0.34375 0.484375 0.34375 1.203125q0 0.703125 -0.421875 1.328125q-0.40625 0.609375 -1.1875 0.953125q-0.765625 0.34375 -1.734375 0.34375q-1.625 0 -2.46875 -0.671875q-0.84375 -0.671875 -1.078125 -2.0zm11.625 1.21875l0.203125 1.25q-0.59375 0.125 -1.0625 0.125q-0.765625 0 -1.1875 -0.234375q-0.421875 -0.25 -0.59375 -0.640625q-0.171875 -0.40625 -0.171875 -1.671875l0 -4.765625l-1.03125 0l0 -1.09375l1.03125 0l0 -2.0625l1.40625 -0.84375l0 2.90625l1.40625 0l0 1.09375l-1.40625 0l0 4.84375q0 0.609375 0.0625 0.78125q0.078125 0.171875 0.25 0.28125q0.171875 0.09375 0.484375 0.09375q0.234375 0 0.609375 -0.0625zm6.7890625 0.234375q-0.78125 0.671875 -1.5 0.953125q-0.71875 0.265625 -1.546875 0.265625q-1.375 0 -2.109375 -0.671875q-0.734375 -0.671875 -0.734375 -1.703125q0 -0.609375 0.28125 -1.109375q0.28125 -0.515625 0.71875 -0.8125q0.453125 -0.3125 1.015625 -0.46875q0.421875 -0.109375 1.25 -0.203125q1.703125 -0.203125 2.515625 -0.484375q0 -0.296875 0 -0.375q0 -0.859375 -0.390625 -1.203125q-0.546875 -0.484375 -1.609375 -0.484375q-0.984375 0 -1.46875 0.359375q-0.46875 0.34375 -0.6875 1.21875l-1.375 -0.1875q0.1875 -0.875 0.609375 -1.421875q0.4375 -0.546875 1.25 -0.828125q0.8125 -0.296875 1.875 -0.296875q1.0625 0 1.71875 0.25q0.671875 0.25 0.984375 0.625q0.3125 0.375 0.4375 0.953125q0.078125 0.359375 0.078125 1.296875l0 1.875q0 1.96875 0.078125 2.484375q0.09375 0.515625 0.359375 1.0l-1.46875 0q-0.21875 -0.4375 -0.28125 -1.03125zm-0.109375 -3.140625q-0.765625 0.3125 -2.296875 0.53125q-0.875 0.125 -1.234375 0.28125q-0.359375 0.15625 -0.5625 0.46875q-0.1875 0.296875 -0.1875 0.65625q0 0.5625 0.421875 0.9375q0.4375 0.375 1.25 0.375q0.8125 0 1.4375 -0.34375q0.640625 -0.359375 0.9375 -0.984375q0.234375 -0.46875 0.234375 -1.40625l0 -0.515625zm6.6640625 2.90625l0.203125 1.25q-0.59375 0.125 -1.0625 0.125q-0.765625 0 -1.1875 -0.234375q-0.421875 -0.25 -0.59375 -0.640625q-0.171875 -0.40625 -0.171875 -1.671875l0 -4.765625l-1.03125 0l0 -1.09375l1.03125 0l0 -2.0625l1.40625 -0.84375l0 2.90625l1.40625 0l0 1.09375l-1.40625 0l0 4.84375q0 0.609375 0.0625 0.78125q0.078125 0.171875 0.25 0.28125q0.171875 0.09375 0.484375 0.09375q0.234375 0 0.609375 -0.0625zm6.8203125 1.265625l0 -1.21875q-0.96875 1.40625 -2.640625 1.40625q-0.734375 0 -1.375 -0.28125q-0.625 -0.28125 -0.9375 -0.703125q-0.3125 -0.4375 -0.4375 -1.046875q-0.078125 -0.421875 -0.078125 -1.3125l0 -5.140625l1.40625 0l0 4.59375q0 1.109375 0.078125 1.484375q0.140625 0.5625 0.5625 0.875q0.4375 0.3125 1.0625 0.3125q0.640625 0 1.1875 -0.3125q0.5625 -0.328125 0.78125 -0.890625q0.234375 -0.5625 0.234375 -1.625l0 -4.4375l1.40625 0l0 8.296875l-1.25 0zm2.8984375 -2.484375l1.390625 -0.21875q0.109375 0.84375 0.640625 1.296875q0.546875 0.4375 1.5 0.4375q0.96875 0 1.4375 -0.390625q0.46875 -0.40625 0.46875 -0.9375q0 -0.46875 -0.40625 -0.75q-0.296875 -0.1875 -1.4375 -0.46875q-1.546875 -0.390625 -2.15625 -0.671875q-0.59375 -0.296875 -0.90625 -0.796875q-0.296875 -0.5 -0.296875 -1.109375q0 -0.5625 0.25 -1.03125q0.25 -0.46875 0.6875 -0.78125q0.328125 -0.25 0.890625 -0.40625q0.578125 -0.171875 1.21875 -0.171875q0.984375 0 1.71875 0.28125q0.734375 0.28125 1.078125 0.765625q0.359375 0.46875 0.5 1.28125l-1.375 0.1875q-0.09375 -0.640625 -0.546875 -1.0q-0.453125 -0.359375 -1.265625 -0.359375q-0.96875 0 -1.390625 0.328125q-0.40625 0.3125 -0.40625 0.734375q0 0.28125 0.171875 0.5q0.171875 0.21875 0.53125 0.375q0.21875 0.078125 1.25 0.359375q1.484375 0.390625 2.078125 0.65625q0.59375 0.25 0.921875 0.734375q0.34375 0.484375 0.34375 1.203125q0 0.703125 -0.421875 1.328125q-0.40625 0.609375 -1.1875 0.953125q-0.765625 0.34375 -1.734375 0.34375q-1.625 0 -2.46875 -0.671875q-0.84375 -0.671875 -1.078125 -2.0zm14.234375 -0.1875l1.453125 0.171875q-0.34375 1.28125 -1.28125 1.984375q-0.921875 0.703125 -2.359375 0.703125q-1.828125 0 -2.890625 -1.125q-1.0625 -1.125 -1.0625 -3.140625q0 -2.09375 1.078125 -3.25q1.078125 -1.15625 2.796875 -1.15625q1.65625 0 2.703125 1.140625q1.0625 1.125 1.0625 3.171875q0 0.125 0 0.375l-6.1875 0q0.078125 1.375 0.765625 2.109375q0.703125 0.71875 1.734375 0.71875q0.78125 0 1.328125 -0.40625q0.546875 -0.40625 0.859375 -1.296875zm-4.609375 -2.28125l4.625 0q-0.09375 -1.046875 -0.53125 -1.5625q-0.671875 -0.8125 -1.734375 -0.8125q-0.96875 0 -1.640625 0.65625q-0.65625 0.640625 -0.71875 1.71875zm7.2734375 2.46875l1.390625 -0.21875q0.109375 0.84375 0.640625 1.296875q0.546875 0.4375 1.5 0.4375q0.96875 0 1.4375 -0.390625q0.46875 -0.40625 0.46875 -0.9375q0 -0.46875 -0.40625 -0.75q-0.296875 -0.1875 -1.4375 -0.46875q-1.546875 -0.390625 -2.15625 -0.671875q-0.59375 -0.296875 -0.90625 -0.796875q-0.296875 -0.5 -0.296875 -1.109375q0 -0.5625 0.25 -1.03125q0.25 -0.46875 0.6875 -0.78125q0.328125 -0.25 0.890625 -0.40625q0.578125 -0.171875 1.21875 -0.171875q0.984375 0 1.71875 0.28125q0.734375 0.28125 1.078125 0.765625q0.359375 0.46875 0.5 1.28125l-1.375 0.1875q-0.09375 -0.640625 -0.546875 -1.0q-0.453125 -0.359375 -1.265625 -0.359375q-0.96875 0 -1.390625 0.328125q-0.40625 0.3125 -0.40625 0.734375q0 0.28125 0.171875 0.5q0.171875 0.21875 0.53125 0.375q0.21875 0.078125 1.25 0.359375q1.484375 0.390625 2.078125 0.65625q0.59375 0.25 0.921875 0.734375q0.34375 0.484375 0.34375 1.203125q0 0.703125 -0.421875 1.328125q-0.40625 0.609375 -1.1875 0.953125q-0.765625 0.34375 -1.734375 0.34375q-1.625 0 -2.46875 -0.671875q-0.84375 -0.671875 -1.078125 -2.0z" fill-rule="nonzero"/><path fill="#cfe2f3" d="m699.9339 114.445854l0 0c-2.027649 -9.271576 4.6293945 -18.449875 17.146362 -23.640205c12.516907 -5.190323 28.698425 -5.4824142 41.678223 -0.75231934l0 0c4.5978394 -5.3908844 13.013184 -9.112907 22.700623 -10.040253c9.687439 -0.92733765 19.509094 1.0489349 26.49408 5.331032l0 0c3.916809 -4.887718 11.607422 -8.1716385 20.342896 -8.686455c8.735474 -0.5148239 17.27948 1.8123169 22.600159 6.155632l0 0c7.076172 -5.180969 18.334595 -7.3623734 28.903687 -5.6003036c10.569031 1.7620697 18.550415 7.151123 20.49054 13.835289l0 0c8.669556 1.4714127 15.891113 5.211952 19.798828 10.255173c3.9077759 5.0432205 4.118347 10.894394 0.57733154 16.04177l0 0c8.536987 6.9134903 10.533997 16.125626 5.2457886 24.198608c-5.288147 8.072983 -17.067078 13.793945 -30.94104 15.027908c-0.09777832 7.576782 -6.776001 14.529144 -17.46051 18.177353c-10.68457 3.6482086 -23.707031 3.4225616 -34.047974 -0.58995056l0 0c-4.404663 9.074509 -16.80243 15.75145 -31.836914 17.146133c-15.034485 1.3946838 -30.01056 -2.74292 -38.457886 -10.625198l0 0c-10.354736 3.8851929 -22.779541 5.00441 -34.47162 3.105133c-11.692078 -1.8992615 -21.666565 -6.657013 -27.673462 -13.199997l0 0c-10.581177 0.77046204 -20.811768 -2.6406708 -25.614319 -8.540466c-4.80249 -5.8997803 -3.154663 -13.032303 4.1257324 -17.857712l0 0c-9.438721 -3.4566803 -14.254883 -10.315903 -11.937134 -17.00084c2.317749 -6.6849365 11.244324 -11.680756 22.124756 -12.3823395z" fill-rule="evenodd"/><path fill="#000000" fill-opacity="0.0" d="m689.5371 144.18637l0 0c4.4541626 1.6312256 9.599731 2.3711853 14.745911 2.1205292m6.7403564 24.278244c2.2130127 -0.16114807 4.382202 -0.5023651 6.45166 -1.0148926m55.690308 11.109314c-1.5565186 -1.4523773 -2.8597412 -3.0043793 -3.8873901 -4.629547m74.184875 -1.8916473l0 0c0.80303955 -1.654419 1.3233643 -3.3571777 1.5522461 -5.0798645m49.954285 -12.506897c0.10412598 -8.066666 -7.2592773 -15.452576 -18.927368 -18.985275m44.622437 -20.240395c-1.8896484 2.746849 -4.774353 5.1835403 -8.4279175 7.1190186m-11.946533 -33.416687l0 0c0.32196045 1.1092377 0.4710083 2.2351532 0.4449463 3.3621292m-49.838318 -11.596779l0 0c-1.7651367 1.2923965 -3.2194214 2.7366257 -4.317505 4.2877274m-38.625916 -1.7574692l0 0c-0.9406738 1.1738739 -1.6431274 2.416031 -2.0911255 3.6978607m-47.10437 1.0114517l0 0c2.746521 1.000885 5.2874146 2.2055588 7.5668945 3.587555m-66.390686 20.805107l0 0c0.27941895 1.2778625 0.7210083 2.5399704 1.3204956 3.7745132" fill-rule="evenodd"/><path fill="#0b5394" d="m724.1564 137.86328l4.75 -12.359367l-1.296875 0l-4.75 12.359367l1.296875 0zm14.8671875 -5.125l0 -0.15625q0 -0.671875 -0.109375 -1.265625q-0.109375 -0.59375 -0.328125 -1.09375q-0.203125 -0.4375 -0.46875 -0.78125q-0.265625 -0.359375 -0.59375 -0.609375q-0.375 -0.265625 -0.84375 -0.40625q-0.453125 -0.15625 -1.0 -0.15625q-0.4375 0 -0.8125 0.09375q-0.375 0.078125 -0.6875 0.234375q-0.25 0.140625 -0.46875 0.328125q-0.21875 0.171875 -0.40625 0.40625l0 -4.4531174l-1.4375 0l0 11.999992l1.328125 0l0.0625 -0.96875q0.140625 0.1875 0.296875 0.34375q0.15625 0.140625 0.328125 0.265625q0.359375 0.25 0.8125 0.375q0.453125 0.140625 1.0 0.140625q0.46875 0 0.875 -0.125q0.421875 -0.109375 0.765625 -0.328125q0.46875 -0.296875 0.8125 -0.765625q0.34375 -0.46875 0.546875 -1.046875q0.15625 -0.453125 0.234375 -0.953125q0.09375 -0.515625 0.09375 -1.078125zm-1.453125 -0.15625l0 0.15625q0 0.375 -0.046875 0.734375q-0.046875 0.359375 -0.140625 0.671875q-0.125 0.421875 -0.34375 0.765625q-0.203125 0.328125 -0.515625 0.546875q-0.234375 0.171875 -0.53125 0.265625q-0.296875 0.078125 -0.65625 0.078125q-0.375 0 -0.6875 -0.09375q-0.3125 -0.09375 -0.5625 -0.28125q-0.25 -0.171875 -0.453125 -0.40625q-0.1875 -0.25 -0.328125 -0.53125l0 -3.6875q0.140625 -0.28125 0.328125 -0.515625q0.1875 -0.25 0.4375 -0.421875q0.25 -0.171875 0.5625 -0.265625q0.3125 -0.109375 0.6875 -0.109375q0.34375 0 0.625 0.078125q0.28125 0.078125 0.5 0.21875q0.328125 0.203125 0.546875 0.546875q0.234375 0.34375 0.375 0.75q0.109375 0.34375 0.15625 0.71875q0.046875 0.375 0.046875 0.78125zm9.4453125 4.296875l1.5 0l0 -0.125q-0.140625 -0.359375 -0.21875 -0.828125q-0.078125 -0.46875 -0.078125 -0.890625l0 -3.9375q0 -0.703125 -0.265625 -1.234375q-0.25 -0.53125 -0.6875 -0.890625q-0.453125 -0.359375 -1.078125 -0.53125q-0.609375 -0.171875 -1.328125 -0.171875q-0.796875 0 -1.421875 0.21875q-0.609375 0.21875 -1.046875 0.5625q-0.4375 0.359375 -0.671875 0.8125q-0.21875 0.4375 -0.234375 0.90625l1.453125 0q0 -0.265625 0.125 -0.515625q0.140625 -0.25 0.375 -0.421875q0.234375 -0.1875 0.5625 -0.296875q0.34375 -0.109375 0.78125 -0.109375q0.453125 0 0.828125 0.125q0.375 0.109375 0.625 0.328125q0.265625 0.21875 0.40625 0.53125q0.140625 0.296875 0.140625 0.671875l0 0.671875l-1.578125 0q-0.890625 0 -1.609375 0.171875q-0.703125 0.171875 -1.21875 0.515625q-0.5 0.34375 -0.78125 0.875q-0.28125 0.515625 -0.28125 1.21875q0 0.53125 0.203125 0.984375q0.21875 0.453125 0.59375 0.78125q0.375 0.34375 0.921875 0.546875q0.546875 0.1875 1.21875 0.1875q0.40625 0 0.765625 -0.09375q0.375 -0.078125 0.703125 -0.234375q0.328125 -0.140625 0.59375 -0.328125q0.265625 -0.203125 0.484375 -0.421875q0.03125 0.265625 0.078125 0.515625q0.046875 0.234375 0.140625 0.40625zm-2.5625 -1.109375q-0.421875 0 -0.75 -0.109375q-0.3125 -0.109375 -0.515625 -0.296875q-0.21875 -0.1875 -0.328125 -0.453125q-0.09375 -0.265625 -0.09375 -0.578125q0 -0.328125 0.109375 -0.578125q0.125 -0.265625 0.359375 -0.453125q0.328125 -0.265625 0.890625 -0.390625q0.5625 -0.140625 1.3125 -0.140625l1.34375 0l0 1.71875q-0.125 0.25 -0.34375 0.484375q-0.21875 0.21875 -0.515625 0.40625q-0.3125 0.171875 -0.6875 0.28125q-0.359375 0.109375 -0.78125 0.109375zm10.0234375 -9.390617l-1.453125 0l0 2.0468674l-2.21875 0l0 1.109375l2.21875 0l0 4.59375q0 0.78125 0.203125 1.34375q0.21875 0.546875 0.578125 0.890625q0.359375 0.34375 0.84375 0.515625q0.484375 0.15625 1.046875 0.15625q0.34375 0 0.671875 -0.03125q0.34375 -0.03125 0.65625 -0.09375q0.296875 -0.0625 0.546875 -0.140625q0.265625 -0.078125 0.453125 -0.1875l-0.203125 -1.03125q-0.140625 0.03125 -0.34375 0.078125q-0.203125 0.046875 -0.4375 0.078125q-0.25 0.046875 -0.5 0.078125q-0.25 0.015625 -0.484375 0.015625q-0.3125 0 -0.609375 -0.078125q-0.28125 -0.078125 -0.5 -0.265625q-0.21875 -0.1875 -0.34375 -0.5q-0.125 -0.328125 -0.125 -0.828125l0 -4.59375l3.21875 0l0 -1.109375l-3.21875 0l0 -2.0468674zm9.7890625 9.484367q-0.6875 0 -1.140625 -0.265625q-0.453125 -0.28125 -0.734375 -0.71875q-0.28125 -0.421875 -0.40625 -0.96875q-0.109375 -0.546875 -0.109375 -1.09375l0 -0.328125q0 -0.546875 0.109375 -1.078125q0.125 -0.546875 0.40625 -0.984375q0.28125 -0.4375 0.734375 -0.703125q0.46875 -0.265625 1.140625 -0.265625q0.4375 0 0.8125 0.15625q0.375 0.140625 0.65625 0.390625q0.265625 0.265625 0.421875 0.609375q0.171875 0.328125 0.171875 0.71875l1.375 0q0 -0.640625 -0.265625 -1.203125q-0.25 -0.5625 -0.703125 -0.984375q-0.46875 -0.40625 -1.09375 -0.640625q-0.625 -0.234375 -1.375 -0.234375q-0.96875 0 -1.6875 0.34375q-0.71875 0.34375 -1.1875 0.921875q-0.484375 0.578125 -0.734375 1.34375q-0.234375 0.765625 -0.234375 1.609375l0 0.328125q0 0.84375 0.234375 1.609375q0.25 0.75 0.734375 1.328125q0.46875 0.59375 1.1875 0.9375q0.71875 0.34375 1.6875 0.34375q0.671875 0 1.28125 -0.234375q0.625 -0.234375 1.09375 -0.625q0.484375 -0.375 0.765625 -0.890625q0.28125 -0.515625 0.296875 -1.078125l-1.375 0q0 0.359375 -0.1875 0.65625q-0.171875 0.296875 -0.453125 0.515625q-0.296875 0.234375 -0.671875 0.359375q-0.359375 0.125 -0.75 0.125zm7.4453125 -6.1875l0 -4.7968674l-1.453125 0l0 11.999992l1.453125 0l0 -6.140625q0.15625 -0.25 0.34375 -0.453125q0.203125 -0.21875 0.4375 -0.375q0.296875 -0.203125 0.640625 -0.3125q0.359375 -0.109375 0.75 -0.109375q0.484375 0 0.84375 0.140625q0.375 0.125 0.609375 0.40625q0.234375 0.25 0.34375 0.625q0.125 0.375 0.125 0.875l0 5.34375l1.4375 0l0 -5.328125q0 -0.84375 -0.203125 -1.46875q-0.203125 -0.625 -0.59375 -1.03125q-0.375 -0.40625 -0.921875 -0.59375q-0.546875 -0.1875 -1.203125 -0.1875q-0.515625 0 -0.96875 0.140625q-0.4375 0.140625 -0.8125 0.421875q-0.234375 0.15625 -0.453125 0.375q-0.203125 0.21875 -0.375 0.46875zm15.1640625 8.390625l0 -1.1875l-7.15625 0l0 1.1875l7.15625 0zm8.2109375 -3.4375q0 0.203125 -0.078125 0.390625q-0.078125 0.171875 -0.234375 0.328125q-0.234375 0.234375 -0.671875 0.375q-0.421875 0.140625 -1.0 0.140625q-0.375 0 -0.75 -0.078125q-0.375 -0.078125 -0.671875 -0.265625q-0.3125 -0.1875 -0.53125 -0.484375q-0.203125 -0.3125 -0.234375 -0.765625l-1.4375 0q0 0.546875 0.234375 1.046875q0.25 0.5 0.71875 0.875q0.46875 0.375 1.140625 0.609375q0.671875 0.234375 1.53125 0.234375q0.75 0 1.375 -0.171875q0.640625 -0.1875 1.09375 -0.515625q0.453125 -0.328125 0.703125 -0.78125q0.25 -0.46875 0.25 -1.03125q0 -0.53125 -0.21875 -0.921875q-0.21875 -0.40625 -0.640625 -0.703125q-0.421875 -0.296875 -1.046875 -0.515625q-0.609375 -0.21875 -1.390625 -0.375q-0.59375 -0.125 -0.984375 -0.25q-0.390625 -0.125 -0.609375 -0.28125q-0.234375 -0.15625 -0.328125 -0.34375q-0.09375 -0.203125 -0.09375 -0.453125q0 -0.234375 0.109375 -0.453125q0.125 -0.234375 0.359375 -0.40625q0.21875 -0.171875 0.5625 -0.265625q0.359375 -0.109375 0.8125 -0.109375q0.453125 0 0.796875 0.125q0.359375 0.125 0.609375 0.328125q0.25 0.203125 0.390625 0.46875q0.140625 0.25 0.140625 0.53125l1.453125 0q0 -0.5625 -0.25 -1.03125q-0.234375 -0.484375 -0.671875 -0.84375q-0.4375 -0.359375 -1.0625 -0.5625q-0.625 -0.203125 -1.40625 -0.203125q-0.71875 0 -1.328125 0.203125q-0.609375 0.1875 -1.046875 0.515625q-0.4375 0.34375 -0.6875 0.796875q-0.234375 0.4375 -0.234375 0.953125q0 0.53125 0.234375 0.921875q0.234375 0.390625 0.671875 0.6875q0.421875 0.296875 1.015625 0.515625q0.59375 0.203125 1.328125 0.34375q0.59375 0.125 0.984375 0.265625q0.40625 0.140625 0.640625 0.3125q0.25 0.171875 0.34375 0.390625q0.109375 0.203125 0.109375 0.453125zm7.3984375 -8.249992l-1.453125 0l0 2.0468674l-2.21875 0l0 1.109375l2.21875 0l0 4.59375q0 0.78125 0.203125 1.34375q0.21875 0.546875 0.578125 0.890625q0.359375 0.34375 0.84375 0.515625q0.484375 0.15625 1.046875 0.15625q0.34375 0 0.671875 -0.03125q0.34375 -0.03125 0.65625 -0.09375q0.296875 -0.0625 0.546875 -0.140625q0.265625 -0.078125 0.453125 -0.1875l-0.203125 -1.03125q-0.140625 0.03125 -0.34375 0.078125q-0.203125 0.046875 -0.4375 0.078125q-0.25 0.046875 -0.5 0.078125q-0.25 0.015625 -0.484375 0.015625q-0.3125 0 -0.609375 -0.078125q-0.28125 -0.078125 -0.5 -0.265625q-0.21875 -0.1875 -0.34375 -0.5q-0.125 -0.328125 -0.125 -0.828125l0 -4.59375l3.21875 0l0 -1.109375l-3.21875 0l0 -2.0468674zm11.7421875 10.499992l1.5 0l0 -0.125q-0.140625 -0.359375 -0.21875 -0.828125q-0.078125 -0.46875 -0.078125 -0.890625l0 -3.9375q0 -0.703125 -0.265625 -1.234375q-0.25 -0.53125 -0.6875 -0.890625q-0.453125 -0.359375 -1.078125 -0.53125q-0.609375 -0.171875 -1.328125 -0.171875q-0.796875 0 -1.421875 0.21875q-0.609375 0.21875 -1.046875 0.5625q-0.4375 0.359375 -0.671875 0.8125q-0.21875 0.4375 -0.234375 0.90625l1.453125 0q0 -0.265625 0.125 -0.515625q0.140625 -0.25 0.375 -0.421875q0.234375 -0.1875 0.5625 -0.296875q0.34375 -0.109375 0.78125 -0.109375q0.453125 0 0.828125 0.125q0.375 0.109375 0.625 0.328125q0.265625 0.21875 0.40625 0.53125q0.140625 0.296875 0.140625 0.671875l0 0.671875l-1.578125 0q-0.890625 0 -1.609375 0.171875q-0.703125 0.171875 -1.21875 0.515625q-0.5 0.34375 -0.78125 0.875q-0.28125 0.515625 -0.28125 1.21875q0 0.53125 0.203125 0.984375q0.21875 0.453125 0.59375 0.78125q0.375 0.34375 0.921875 0.546875q0.546875 0.1875 1.21875 0.1875q0.40625 0 0.765625 -0.09375q0.375 -0.078125 0.703125 -0.234375q0.328125 -0.140625 0.59375 -0.328125q0.265625 -0.203125 0.484375 -0.421875q0.03125 0.265625 0.078125 0.515625q0.046875 0.234375 0.140625 0.40625zm-2.5625 -1.109375q-0.421875 0 -0.75 -0.109375q-0.3125 -0.109375 -0.515625 -0.296875q-0.21875 -0.1875 -0.328125 -0.453125q-0.09375 -0.265625 -0.09375 -0.578125q0 -0.328125 0.109375 -0.578125q0.125 -0.265625 0.359375 -0.453125q0.328125 -0.265625 0.890625 -0.390625q0.5625 -0.140625 1.3125 -0.140625l1.34375 0l0 1.71875q-0.125 0.25 -0.34375 0.484375q-0.21875 0.21875 -0.515625 0.40625q-0.3125 0.171875 -0.6875 0.28125q-0.359375 0.109375 -0.78125 0.109375zm10.0234375 -9.390617l-1.453125 0l0 2.0468674l-2.21875 0l0 1.109375l2.21875 0l0 4.59375q0 0.78125 0.203125 1.34375q0.21875 0.546875 0.578125 0.890625q0.359375 0.34375 0.84375 0.515625q0.484375 0.15625 1.046875 0.15625q0.34375 0 0.671875 -0.03125q0.34375 -0.03125 0.65625 -0.09375q0.296875 -0.0625 0.546875 -0.140625q0.265625 -0.078125 0.453125 -0.1875l-0.203125 -1.03125q-0.140625 0.03125 -0.34375 0.078125q-0.203125 0.046875 -0.4375 0.078125q-0.25 0.046875 -0.5 0.078125q-0.25 0.015625 -0.484375 0.015625q-0.3125 0 -0.609375 -0.078125q-0.28125 -0.078125 -0.5 -0.265625q-0.21875 -0.1875 -0.34375 -0.5q-0.125 -0.328125 -0.125 -0.828125l0 -4.59375l3.21875 0l0 -1.109375l-3.21875 0l0 -2.0468674zm11.7578125 10.499992l1.3125 0l0 -8.453125l-1.453125 0l0 6.0625q-0.125 0.265625 -0.296875 0.5q-0.171875 0.234375 -0.40625 0.390625q-0.28125 0.203125 -0.671875 0.328125q-0.375 0.109375 -0.859375 0.109375q-0.421875 0 -0.734375 -0.109375q-0.3125 -0.109375 -0.53125 -0.390625q-0.21875 -0.265625 -0.328125 -0.71875q-0.109375 -0.453125 -0.109375 -1.140625l0 -5.03125l-1.453125 0l0 5.015625q0 0.953125 0.203125 1.625q0.21875 0.671875 0.59375 1.109375q0.390625 0.4375 0.921875 0.65625q0.546875 0.203125 1.203125 0.203125q0.828125 0 1.453125 -0.34375q0.640625 -0.359375 1.0625 -0.984375l0.09375 1.171875zm9.6484375 -2.25q0 0.203125 -0.078125 0.390625q-0.078125 0.171875 -0.234375 0.328125q-0.234375 0.234375 -0.671875 0.375q-0.421875 0.140625 -1.0 0.140625q-0.375 0 -0.75 -0.078125q-0.375 -0.078125 -0.671875 -0.265625q-0.3125 -0.1875 -0.53125 -0.484375q-0.203125 -0.3125 -0.234375 -0.765625l-1.4375 0q0 0.546875 0.234375 1.046875q0.25 0.5 0.71875 0.875q0.46875 0.375 1.140625 0.609375q0.671875 0.234375 1.53125 0.234375q0.75 0 1.375 -0.171875q0.640625 -0.1875 1.09375 -0.515625q0.453125 -0.328125 0.703125 -0.78125q0.25 -0.46875 0.25 -1.03125q0 -0.53125 -0.21875 -0.921875q-0.21875 -0.40625 -0.640625 -0.703125q-0.421875 -0.296875 -1.046875 -0.515625q-0.609375 -0.21875 -1.390625 -0.375q-0.59375 -0.125 -0.984375 -0.25q-0.390625 -0.125 -0.609375 -0.28125q-0.234375 -0.15625 -0.328125 -0.34375q-0.09375 -0.203125 -0.09375 -0.453125q0 -0.234375 0.109375 -0.453125q0.125 -0.234375 0.359375 -0.40625q0.21875 -0.171875 0.5625 -0.265625q0.359375 -0.109375 0.8125 -0.109375q0.453125 0 0.796875 0.125q0.359375 0.125 0.609375 0.328125q0.25 0.203125 0.390625 0.46875q0.140625 0.25 0.140625 0.53125l1.453125 0q0 -0.5625 -0.25 -1.03125q-0.234375 -0.484375 -0.671875 -0.84375q-0.4375 -0.359375 -1.0625 -0.5625q-0.625 -0.203125 -1.40625 -0.203125q-0.71875 0 -1.328125 0.203125q-0.609375 0.1875 -1.046875 0.515625q-0.4375 0.34375 -0.6875 0.796875q-0.234375 0.4375 -0.234375 0.953125q0 0.53125 0.234375 0.921875q0.234375 0.390625 0.671875 0.6875q0.421875 0.296875 1.015625 0.515625q0.59375 0.203125 1.328125 0.34375q0.59375 0.125 0.984375 0.265625q0.40625 0.140625 0.640625 0.3125q0.25 0.171875 0.34375 0.390625q0.109375 0.203125 0.109375 0.453125zm7.7109375 2.40625q1.234375 0 2.078125 -0.5q0.84375 -0.5 1.265625 -1.140625l-0.890625 -0.6875q-0.390625 0.515625 -1.0 0.828125q-0.59375 0.3125 -1.375 0.3125q-0.578125 0 -1.0625 -0.21875q-0.484375 -0.21875 -0.828125 -0.59375q-0.34375 -0.359375 -0.53125 -0.828125q-0.1875 -0.46875 -0.25 -1.09375l0 -0.046875l6.046875 0l0 -0.65625q0 -0.875 -0.234375 -1.625q-0.21875 -0.765625 -0.671875 -1.328125q-0.453125 -0.5625 -1.140625 -0.875q-0.671875 -0.3125 -1.59375 -0.3125q-0.71875 0 -1.421875 0.296875q-0.6875 0.296875 -1.21875 0.84375q-0.546875 0.5625 -0.875 1.375q-0.328125 0.8125 -0.328125 1.828125l0 0.328125q0 0.890625 0.296875 1.640625q0.296875 0.75 0.828125 1.296875q0.53125 0.546875 1.265625 0.859375q0.75 0.296875 1.640625 0.296875zm-0.1875 -7.578125q0.5625 0 0.953125 0.203125q0.40625 0.203125 0.671875 0.53125q0.265625 0.328125 0.40625 0.78125q0.15625 0.4375 0.15625 0.828125l0 0.078125l-4.546875 0q0.09375 -0.59375 0.296875 -1.03125q0.21875 -0.453125 0.53125 -0.765625q0.3125 -0.3125 0.703125 -0.46875q0.390625 -0.15625 0.828125 -0.15625zm11.6796875 5.171875q0 0.203125 -0.078125 0.390625q-0.078125 0.171875 -0.234375 0.328125q-0.234375 0.234375 -0.671875 0.375q-0.421875 0.140625 -1.0 0.140625q-0.375 0 -0.75 -0.078125q-0.375 -0.078125 -0.671875 -0.265625q-0.3125 -0.1875 -0.53125 -0.484375q-0.203125 -0.3125 -0.234375 -0.765625l-1.4375 0q0 0.546875 0.234375 1.046875q0.25 0.5 0.71875 0.875q0.46875 0.375 1.140625 0.609375q0.671875 0.234375 1.53125 0.234375q0.75 0 1.375 -0.171875q0.640625 -0.1875 1.09375 -0.515625q0.453125 -0.328125 0.703125 -0.78125q0.25 -0.46875 0.25 -1.03125q0 -0.53125 -0.21875 -0.921875q-0.21875 -0.40625 -0.640625 -0.703125q-0.421875 -0.296875 -1.046875 -0.515625q-0.609375 -0.21875 -1.390625 -0.375q-0.59375 -0.125 -0.984375 -0.25q-0.390625 -0.125 -0.609375 -0.28125q-0.234375 -0.15625 -0.328125 -0.34375q-0.09375 -0.203125 -0.09375 -0.453125q0 -0.234375 0.109375 -0.453125q0.125 -0.234375 0.359375 -0.40625q0.21875 -0.171875 0.5625 -0.265625q0.359375 -0.109375 0.8125 -0.109375q0.453125 0 0.796875 0.125q0.359375 0.125 0.609375 0.328125q0.25 0.203125 0.390625 0.46875q0.140625 0.25 0.140625 0.53125l1.453125 0q0 -0.5625 -0.25 -1.03125q-0.234375 -0.484375 -0.671875 -0.84375q-0.4375 -0.359375 -1.0625 -0.5625q-0.625 -0.203125 -1.40625 -0.203125q-0.71875 0 -1.328125 0.203125q-0.609375 0.1875 -1.046875 0.515625q-0.4375 0.34375 -0.6875 0.796875q-0.234375 0.4375 -0.234375 0.953125q0 0.53125 0.234375 0.921875q0.234375 0.390625 0.671875 0.6875q0.421875 0.296875 1.015625 0.515625q0.59375 0.203125 1.328125 0.34375q0.59375 0.125 0.984375 0.265625q0.40625 0.140625 0.640625 0.3125q0.25 0.171875 0.34375 0.390625q0.109375 0.203125 0.109375 0.453125z" fill-rule="nonzero"/><path fill="#ea9999" d="m131.48294 76.1706l16.377945 -16.377949l16.37796 16.377949l-8.18898 0l0 319.84253l8.18898 0l-16.37796 16.37796l-16.377945 -16.37796l8.18898 0l0 -319.84253z" fill-rule="evenodd"/><path fill="#ea9999" d="m622.8688 133.68242l12.976379 -12.976379l0 6.4881897l28.409424 0l0 -6.4881897l12.976379 12.976379l-12.976379 12.976379l0 -6.4881897l-28.409424 0l0 6.4881897z" fill-rule="evenodd"/><path fill="#ea9999" d="m201.4462 457.48557l15.448822 -15.448822l0 7.7244263l213.35431 0l0 -7.7244263l15.448822 15.448822l-15.448822 15.448822l0 -7.7244263l-213.35431 0l0 7.7244263z" fill-rule="evenodd"/><path fill="#cfe2f3" d="m325.01825 13.650919l161.88977 0l0 46.14173l-161.88977 0z" fill-rule="evenodd"/><path fill="#0b5394" d="m335.33075 42.581783l0 -11.453123l7.734375 0l0 1.3437481l-6.21875 0l0 3.546875l5.375 0l0 1.359375l-5.375 0l0 5.203125l-1.515625 0zm8.9921875 -4.15625q0 -2.296875 1.28125 -3.40625q1.078125 -0.921875 2.609375 -0.921875q1.71875 0 2.796875 1.125q1.09375 1.109375 1.09375 3.09375q0 1.59375 -0.484375 2.515625q-0.484375 0.921875 -1.40625 1.4375q-0.90625 0.5 -2.0 0.5q-1.734375 0 -2.8125 -1.109375q-1.078125 -1.125 -1.078125 -3.234375zm1.453125 0q0 1.59375 0.6875 2.390625q0.703125 0.796875 1.75 0.796875q1.046875 0 1.734375 -0.796875q0.703125 -0.796875 0.703125 -2.4375q0 -1.53125 -0.703125 -2.328125q-0.6875 -0.796875 -1.734375 -0.796875q-1.046875 0 -1.75 0.796875q-0.6875 0.78125 -0.6875 2.375zm7.9609375 4.15625l0 -8.296875l1.265625 0l0 1.25q0.484375 -0.875 0.890625 -1.15625q0.40625 -0.28125 0.90625 -0.28125q0.703125 0 1.4375 0.453125l-0.484375 1.296875q-0.515625 -0.296875 -1.03125 -0.296875q-0.453125 0 -0.828125 0.28125q-0.359375 0.265625 -0.515625 0.765625q-0.234375 0.75 -0.234375 1.640625l0 4.34375l-1.40625 0zm15.4609375 -2.671875l1.453125 0.171875q-0.34375 1.28125 -1.28125 1.984375q-0.921875 0.703125 -2.359375 0.703125q-1.828125 0 -2.890625 -1.125q-1.0625 -1.125 -1.0625 -3.140625q0 -2.09375 1.078125 -3.25q1.078125 -1.15625 2.796875 -1.15625q1.65625 0 2.703125 1.140625q1.0625 1.125 1.0625 3.171875q0 0.125 0 0.375l-6.1875 0q0.078125 1.375 0.765625 2.109375q0.703125 0.71875 1.734375 0.71875q0.78125 0 1.328125 -0.40625q0.546875 -0.40625 0.859375 -1.296875zm-4.609375 -2.28125l4.625 0q-0.09375 -1.046875 -0.53125 -1.5625q-0.671875 -0.8125 -1.734375 -0.8125q-0.96875 0 -1.640625 0.65625q-0.65625 0.640625 -0.71875 1.71875zm13.2421875 3.921875q-0.78125 0.671875 -1.5 0.953125q-0.71875 0.265625 -1.546875 0.265625q-1.375 0 -2.109375 -0.671875q-0.734375 -0.671875 -0.734375 -1.703125q0 -0.609375 0.28125 -1.109375q0.28125 -0.515625 0.71875 -0.8125q0.453125 -0.3125 1.015625 -0.46875q0.421875 -0.109375 1.25 -0.203125q1.703125 -0.203125 2.515625 -0.484375q0 -0.296875 0 -0.375q0 -0.859375 -0.390625 -1.203125q-0.546875 -0.484375 -1.609375 -0.484375q-0.984375 0 -1.46875 0.359375q-0.46875 0.34375 -0.6875 1.21875l-1.375 -0.1875q0.1875 -0.875 0.609375 -1.421875q0.4375 -0.546875 1.25 -0.828125q0.8125 -0.296875 1.875 -0.296875q1.0625 0 1.71875 0.25q0.671875 0.25 0.984375 0.625q0.3125 0.375 0.4375 0.953125q0.078125 0.359375 0.078125 1.296875l0 1.875q0 1.96875 0.078125 2.484375q0.09375 0.515625 0.359375 1.0l-1.46875 0q-0.21875 -0.4375 -0.28125 -1.03125zm-0.109375 -3.140625q-0.765625 0.3125 -2.296875 0.53125q-0.875 0.125 -1.234375 0.28125q-0.359375 0.15625 -0.5625 0.46875q-0.1875 0.296875 -0.1875 0.65625q0 0.5625 0.421875 0.9375q0.4375 0.375 1.25 0.375q0.8125 0 1.4375 -0.34375q0.640625 -0.359375 0.9375 -0.984375q0.234375 -0.46875 0.234375 -1.40625l0 -0.515625zm9.0078125 1.125l1.390625 0.1875q-0.234375 1.421875 -1.171875 2.234375q-0.921875 0.8125 -2.28125 0.8125q-1.703125 0 -2.75 -1.109375q-1.03125 -1.125 -1.03125 -3.203125q0 -1.34375 0.4375 -2.34375q0.453125 -1.015625 1.359375 -1.515625q0.921875 -0.5 1.984375 -0.5q1.359375 0 2.21875 0.6875q0.859375 0.671875 1.09375 1.9375l-1.359375 0.203125q-0.203125 -0.828125 -0.703125 -1.25q-0.484375 -0.421875 -1.1875 -0.421875q-1.0625 0 -1.734375 0.765625q-0.65625 0.75 -0.65625 2.40625q0 1.671875 0.640625 2.4375q0.640625 0.75 1.671875 0.75q0.828125 0 1.375 -0.5q0.5625 -0.515625 0.703125 -1.578125zm2.59375 3.046875l0 -11.453123l1.40625 0l0 4.109373q0.984375 -1.140625 2.484375 -1.140625q0.921875 0 1.59375 0.359375q0.6875 0.359375 0.96875 1.0q0.296875 0.640625 0.296875 1.859375l0 5.265625l-1.40625 0l0 -5.265625q0 -1.046875 -0.453125 -1.53125q-0.453125 -0.484375 -1.296875 -0.484375q-0.625 0 -1.171875 0.328125q-0.546875 0.328125 -0.78125 0.890625q-0.234375 0.546875 -0.234375 1.515625l0 4.546875l-1.40625 0zm12.78125 -2.484375l1.390625 -0.21875q0.109375 0.84375 0.640625 1.296875q0.546875 0.4375 1.5 0.4375q0.96875 0 1.4375 -0.390625q0.46875 -0.40625 0.46875 -0.9375q0 -0.46875 -0.40625 -0.75q-0.296875 -0.1875 -1.4375 -0.46875q-1.546875 -0.390625 -2.15625 -0.671875q-0.59375 -0.296875 -0.90625 -0.796875q-0.296875 -0.5 -0.296875 -1.109375q0 -0.5625 0.25 -1.03125q0.25 -0.46875 0.6875 -0.78125q0.328125 -0.25 0.890625 -0.40625q0.578125 -0.171875 1.21875 -0.171875q0.984375 0 1.71875 0.28125q0.734375 0.28125 1.078125 0.765625q0.359375 0.46875 0.5 1.28125l-1.375 0.1875q-0.09375 -0.640625 -0.546875 -1.0q-0.453125 -0.359375 -1.265625 -0.359375q-0.96875 0 -1.390625 0.328125q-0.40625 0.3125 -0.40625 0.734375q0 0.28125 0.171875 0.5q0.171875 0.21875 0.53125 0.375q0.21875 0.078125 1.25 0.359375q1.484375 0.390625 2.078125 0.65625q0.59375 0.25 0.921875 0.734375q0.34375 0.484375 0.34375 1.203125q0 0.703125 -0.421875 1.328125q-0.40625 0.609375 -1.1875 0.953125q-0.765625 0.34375 -1.734375 0.34375q-1.625 0 -2.46875 -0.671875q-0.84375 -0.671875 -1.078125 -2.0zm14.234375 -0.1875l1.453125 0.171875q-0.34375 1.28125 -1.28125 1.984375q-0.921875 0.703125 -2.359375 0.703125q-1.828125 0 -2.890625 -1.125q-1.0625 -1.125 -1.0625 -3.140625q0 -2.09375 1.078125 -3.25q1.078125 -1.15625 2.796875 -1.15625q1.65625 0 2.703125 1.140625q1.0625 1.125 1.0625 3.171875q0 0.125 0 0.375l-6.1875 0q0.078125 1.375 0.765625 2.109375q0.703125 0.71875 1.734375 0.71875q0.78125 0 1.328125 -0.40625q0.546875 -0.40625 0.859375 -1.296875zm-4.609375 -2.28125l4.625 0q-0.09375 -1.046875 -0.53125 -1.5625q-0.671875 -0.8125 -1.734375 -0.8125q-0.96875 0 -1.640625 0.65625q-0.65625 0.640625 -0.71875 1.71875zm7.8203125 4.953125l0 -8.296875l1.265625 0l0 1.25q0.484375 -0.875 0.890625 -1.15625q0.40625 -0.28125 0.90625 -0.28125q0.703125 0 1.4375 0.453125l-0.484375 1.296875q-0.515625 -0.296875 -1.03125 -0.296875q-0.453125 0 -0.828125 0.28125q-0.359375 0.265625 -0.515625 0.765625q-0.234375 0.75 -0.234375 1.640625l0 4.34375l-1.40625 0zm7.640625 0l-3.15625 -8.296875l1.484375 0l1.78125 4.96875q0.296875 0.796875 0.53125 1.671875q0.1875 -0.65625 0.53125 -1.578125l1.84375 -5.0625l1.4375 0l-3.140625 8.296875l-1.3125 0zm5.703125 -9.84375l0 -1.6093731l1.40625 0l0 1.6093731l-1.40625 0zm0 9.84375l0 -8.296875l1.40625 0l0 8.296875l-1.40625 0zm8.9609375 -3.046875l1.390625 0.1875q-0.234375 1.421875 -1.171875 2.234375q-0.921875 0.8125 -2.28125 0.8125q-1.703125 0 -2.75 -1.109375q-1.03125 -1.125 -1.03125 -3.203125q0 -1.34375 0.4375 -2.34375q0.453125 -1.015625 1.359375 -1.515625q0.921875 -0.5 1.984375 -0.5q1.359375 0 2.21875 0.6875q0.859375 0.671875 1.09375 1.9375l-1.359375 0.203125q-0.203125 -0.828125 -0.703125 -1.25q-0.484375 -0.421875 -1.1875 -0.421875q-1.0625 0 -1.734375 0.765625q-0.65625 0.75 -0.65625 2.40625q0 1.671875 0.640625 2.4375q0.640625 0.75 1.671875 0.75q0.828125 0 1.375 -0.5q0.5625 -0.515625 0.703125 -1.578125zm8.265625 0.375l1.453125 0.171875q-0.34375 1.28125 -1.28125 1.984375q-0.921875 0.703125 -2.359375 0.703125q-1.828125 0 -2.890625 -1.125q-1.0625 -1.125 -1.0625 -3.140625q0 -2.09375 1.078125 -3.25q1.078125 -1.15625 2.796875 -1.15625q1.65625 0 2.703125 1.140625q1.0625 1.125 1.0625 3.171875q0 0.125 0 0.375l-6.1875 0q0.078125 1.375 0.765625 2.109375q0.703125 0.71875 1.734375 0.71875q0.78125 0 1.328125 -0.40625q0.546875 -0.40625 0.859375 -1.296875zm-4.609375 -2.28125l4.625 0q-0.09375 -1.046875 -0.53125 -1.5625q-0.671875 -0.8125 -1.734375 -0.8125q-0.96875 0 -1.640625 0.65625q-0.65625 0.640625 -0.71875 1.71875zm12.28125 -4.890625l0 -1.6093731l1.40625 0l0 1.6093731l-1.40625 0zm0 9.84375l0 -8.296875l1.40625 0l0 8.296875l-1.40625 0zm8.9296875 0l0 -1.046875q-0.78125 1.234375 -2.3125 1.234375q-1.0 0 -1.828125 -0.546875q-0.828125 -0.546875 -1.296875 -1.53125q-0.453125 -0.984375 -0.453125 -2.25q0 -1.25 0.40625 -2.25q0.421875 -1.015625 1.25 -1.546875q0.828125 -0.546875 1.859375 -0.546875q0.75 0 1.328125 0.3125q0.59375 0.3125 0.953125 0.828125l0 -4.109373l1.40625 0l0 11.453123l-1.3125 0zm-4.4375 -4.140625q0 1.59375 0.671875 2.390625q0.671875 0.78125 1.578125 0.78125q0.921875 0 1.5625 -0.75q0.65625 -0.765625 0.65625 -2.3125q0 -1.703125 -0.65625 -2.5q-0.65625 -0.796875 -1.625 -0.796875q-0.9375 0 -1.5625 0.765625q-0.625 0.765625 -0.625 2.421875z" fill-rule="nonzero"/><path fill="#cfe2f3" d="m99.67191 420.55643l0 0c0 6.6535034 21.574944 12.047241 48.188972 12.047241c26.614044 0 48.18898 -5.393738 48.18898 -12.047241l0 73.85828c0 6.6535034 -21.574936 12.047241 -48.18898 12.047241c-26.614029 0 -48.188972 -5.393738 -48.188972 -12.047241z" fill-rule="evenodd"/><path fill="#e2edf7" d="m99.67191 420.55643l0 0c0 -6.6535034 21.574944 -12.047241 48.188972 -12.047241c26.614044 0 48.18898 5.393738 48.18898 12.047241l0 0c0 6.6535034 -21.574936 12.047241 -48.18898 12.047241c-26.614029 0 -48.188972 -5.393738 -48.188972 -12.047241z" fill-rule="evenodd"/><path fill="#000000" fill-opacity="0.0" d="m196.04987 420.55643l0 0c0 6.6535034 -21.574936 12.047241 -48.18898 12.047241c-26.614029 0 -48.188972 -5.393738 -48.188972 -12.047241l0 0c0 -6.6535034 21.574944 -12.047241 48.188972 -12.047241c26.614044 0 48.18898 5.393738 48.18898 12.047241l0 73.85828c0 6.6535034 -21.574936 12.047241 -48.18898 12.047241c-26.614029 0 -48.188972 -5.393738 -48.188972 -12.047241l0 -73.85828" fill-rule="evenodd"/><path fill="#0b5394" d="m137.92607 454.19482l0 -1.578125l5.65625 0l0 4.953125q-1.296875 1.046875 -2.6875 1.578125q-1.375 0.515625 -2.84375 0.515625q-1.96875 0 -3.578125 -0.84375q-1.609375 -0.84375 -2.421875 -2.4375q-0.8125 -1.59375 -0.8125 -3.5625q0 -1.953125 0.8125 -3.640625q0.8125 -1.6875 2.34375 -2.5q1.53125 -0.828125 3.515625 -0.828125q1.453125 0 2.625 0.46875q1.171875 0.46875 1.828125 1.3125q0.671875 0.828125 1.015625 2.171875l-1.59375 0.4375q-0.296875 -1.015625 -0.75 -1.59375q-0.4375 -0.59375 -1.265625 -0.9375q-0.828125 -0.34375 -1.84375 -0.34375q-1.203125 0 -2.09375 0.375q-0.890625 0.359375 -1.4375 0.96875q-0.53125 0.59375 -0.828125 1.3125q-0.515625 1.234375 -0.515625 2.6875q0 1.78125 0.609375 2.984375q0.625 1.203125 1.796875 1.796875q1.171875 0.578125 2.5 0.578125q1.140625 0 2.234375 -0.4375q1.09375 -0.453125 1.65625 -0.953125l0 -2.484375l-3.921875 0zm8.042679 5.234375l0 -9.671875l1.46875 0l0 1.46875q0.5625 -1.03125 1.03125 -1.359375q0.484375 -0.328125 1.0625 -0.328125q0.828125 0 1.6875 0.53125l-0.5625 1.515625q-0.609375 -0.359375 -1.203125 -0.359375q-0.546875 0 -0.96875 0.328125q-0.421875 0.328125 -0.609375 0.890625q-0.28125 0.875 -0.28125 1.921875l0 5.0625l-1.625 0zm6.228302 -11.46875l0 -1.890625l1.640625 0l0 1.890625l-1.640625 0zm0 11.46875l0 -9.671875l1.640625 0l0 9.671875l-1.640625 0zm10.410446 0l0 -1.21875q-0.90625 1.4375 -2.703125 1.4375q-1.15625 0 -2.125 -0.640625q-0.96875 -0.640625 -1.5 -1.78125q-0.53125 -1.140625 -0.53125 -2.625q0 -1.453125 0.484375 -2.625q0.484375 -1.1875 1.4375 -1.8125q0.96875 -0.625 2.171875 -0.625q0.875 0 1.546875 0.375q0.6875 0.359375 1.109375 0.953125l0 -4.796875l1.640625 0l0 13.359375l-1.53125 0zm-5.171875 -4.828125q0 1.859375 0.78125 2.78125q0.78125 0.921875 1.84375 0.921875q1.078125 0 1.828125 -0.875q0.75 -0.890625 0.75 -2.6875q0 -1.984375 -0.765625 -2.90625q-0.765625 -0.9375 -1.890625 -0.9375q-1.078125 0 -1.8125 0.890625q-0.734375 0.890625 -0.734375 2.8125z" fill-rule="nonzero"/><path fill="#0b5394" d="m136.34013 481.42917l0 -13.359375l4.609375 0q1.546875 0 2.375 0.203125q1.140625 0.25 1.953125 0.953125q1.0625 0.890625 1.578125 2.28125q0.53125 1.390625 0.53125 3.171875q0 1.515625 -0.359375 2.703125q-0.359375 1.171875 -0.921875 1.9375q-0.546875 0.765625 -1.203125 1.21875q-0.65625 0.4375 -1.59375 0.671875q-0.9375 0.21875 -2.140625 0.21875l-4.828125 0zm1.765625 -1.578125l2.859375 0q1.3125 0 2.0625 -0.234375q0.75 -0.25 1.203125 -0.703125q0.625 -0.625 0.96875 -1.6875q0.359375 -1.0625 0.359375 -2.578125q0 -2.09375 -0.6875 -3.21875q-0.6875 -1.125 -1.671875 -1.5q-0.703125 -0.28125 -2.28125 -0.28125l-2.8125 0l0 10.203125zm11.629196 1.578125l0 -13.359375l5.015625 0q1.53125 0 2.453125 0.40625q0.921875 0.40625 1.4375 1.25q0.53125 0.84375 0.53125 1.765625q0 0.859375 -0.46875 1.625q-0.453125 0.75 -1.390625 1.203125q1.203125 0.359375 1.859375 1.21875q0.65625 0.859375 0.65625 2.015625q0 0.9375 -0.40625 1.75q-0.390625 0.796875 -0.984375 1.234375q-0.578125 0.4375 -1.453125 0.671875q-0.875 0.21875 -2.15625 0.21875l-5.09375 0zm1.78125 -7.75l2.875 0q1.1875 0 1.6875 -0.140625q0.671875 -0.203125 1.015625 -0.671875q0.34375 -0.46875 0.34375 -1.171875q0 -0.65625 -0.328125 -1.15625q-0.3125 -0.515625 -0.90625 -0.703125q-0.59375 -0.1875 -2.03125 -0.1875l-2.65625 0l0 4.03125zm0 6.171875l3.3125 0q0.859375 0 1.203125 -0.0625q0.609375 -0.109375 1.015625 -0.359375q0.421875 -0.265625 0.6875 -0.75q0.265625 -0.484375 0.265625 -1.125q0 -0.75 -0.390625 -1.296875q-0.375 -0.546875 -1.0625 -0.765625q-0.671875 -0.234375 -1.953125 -0.234375l-3.078125 0l0 4.59375z" fill-rule="nonzero"/></g></svg>