<svg width="93" height="93" viewBox="0 0 93 93" fill="none" xmlns="http://www.w3.org/2000/svg">
<path d="M48.8516 25.4062V10.6992H63.0938V25.4062H48.8516Z" fill="#222325"/>
<path d="M68.0781 25.4062V10.6992H82.0195V25.4062H68.0781Z" fill="#222325"/>
<path d="M10.6992 44.1914V30.3906H25.082V44.1914H10.6992Z" fill="#222325"/>
<path d="M48.8516 44.1914V30.3906H63.0938V44.1914H48.8516Z" fill="#222325"/>
<path d="M30.0664 82.0195V68.3984H43.8672V82.0195H30.0664Z" fill="#222325"/>
<path d="M30.0664 25.4062V10.6992H43.8672V25.4062H30.0664Z" fill="#222325"/>
<path d="M68.0781 44.1914V30.3906H82.0195V44.1914H68.0781Z" fill="#222325"/>
<path d="M30.0664 44.1914V30.3906H43.8672V44.1914H30.0664Z" fill="#222325"/>
<path d="M30.0664 63.4141V49.1758H43.8672V63.4141H30.0664Z" fill="#222325"/>
<path d="M48.8516 63.4141V49.1758H63.0938V63.4141H48.8516Z" fill="#F35F19"/>
<path d="M10.6992 25.4062V10.6992H25.082V25.4062H10.6992Z" fill="#F35F19"/>
<path d="M10.6992 82.0195V68.3984H25.082V82.0195H10.6992Z" fill="#222325"/>
<path d="M10.6992 63.4141V49.1758H25.082V63.4141H10.6992Z" fill="#222325"/>
<path d="M92.7188 0H0V92.7188H92.7188V0ZM87.6992 5.01953V87.6992H5.01953V5.01953H87.6992Z" fill="#F35F19"/>
</svg>
