<svg width="326" height="93" viewBox="0 0 326 93" fill="none" xmlns="http://www.w3.org/2000/svg">
<path d="M118.594 19.668L127.312 19.625L127.363 28.4258L131.848 28.4023L131.742 8.04297L127.254 8.0625L127.297 15.6562L118.574 15.6992L118.535 8.10938L114.047 8.13672L114.148 28.4922L118.641 28.4688L118.594 19.668Z" fill="#222325"/>
<path d="M142.723 28.4805L147.215 28.4531L147.172 19.7734L154.762 8.05859L149.434 8.08203L144.898 15.7266L140.543 8.12891L134.961 8.16016L142.68 19.7969L142.723 28.4805Z" fill="#222325"/>
<path d="M164.715 11.8711C165.137 11.8672 165.582 11.8867 166.043 11.9336C166.504 11.9766 166.926 12.0859 167.297 12.2539C167.676 12.4258 167.98 12.6719 168.223 12.9883C168.465 13.3008 168.586 13.7188 168.59 14.2344C168.59 14.7109 168.508 15.1133 168.324 15.4297C168.141 15.7461 167.906 15.9961 167.609 16.1758C167.309 16.3594 166.977 16.4922 166.602 16.5703C166.227 16.6484 165.844 16.6953 165.438 16.6953L162.445 16.7109L162.422 11.8828L164.715 11.8711ZM162.496 28.4414L162.457 20.5078L165.738 20.4883C166.813 20.4844 167.809 20.3789 168.73 20.168C169.648 19.9609 170.445 19.6172 171.113 19.1367C171.781 18.6523 172.309 18.0078 172.684 17.1992C173.062 16.3867 173.254 15.3945 173.246 14.2031C173.242 12.9922 173.031 11.9922 172.609 11.1992C172.191 10.4062 171.633 9.77734 170.934 9.3125C170.227 8.84766 169.406 8.52344 168.465 8.33594C167.523 8.14844 166.527 8.05859 165.473 8.0625L157.902 8.10156L158.012 28.4648L162.496 28.4414Z" fill="#222325"/>
<path d="M190.828 28.4102L190.805 24.2695L180.934 24.3164L180.91 20.1797L189.746 20.1328L189.723 15.9961L180.887 16.0391L180.871 12.2422L190.223 12.1914L190.199 8.05469L176.359 8.125L176.465 28.4844L190.828 28.4102Z" fill="#222325"/>
<path d="M198.469 16.5117L198.445 11.8828L201.383 11.8672C201.785 11.8594 202.199 11.8867 202.617 11.9414C203.039 12 203.418 12.1055 203.746 12.2695C204.074 12.4297 204.34 12.6641 204.555 12.9688C204.766 13.2734 204.879 13.6875 204.879 14.207C204.879 14.7617 204.762 15.1953 204.523 15.5C204.285 15.8047 203.984 16.0391 203.617 16.1836C203.258 16.332 202.848 16.4141 202.398 16.4492C201.949 16.4844 201.52 16.5 201.113 16.5L198.469 16.5117ZM205.004 28.4102L210.387 28.3789L205.16 19.8086C206.605 19.5274 207.691 18.8906 208.43 17.8828C209.172 16.8672 209.539 15.6445 209.535 14.207C209.527 13.0195 209.316 12.0313 208.895 11.2383C208.48 10.4453 207.918 9.81641 207.219 9.35157C206.516 8.88673 205.699 8.55079 204.766 8.35938C203.84 8.16016 202.852 8.06251 201.82 8.07032L193.934 8.11329L194.039 28.4766L198.527 28.4531L198.484 20.3125L200.703 20.3008L205.004 28.4102Z" fill="#222325"/>
<path d="M226.305 28.3789L226.281 24.2422L217.965 24.2852L217.879 8.0625L213.391 8.08594L213.496 28.4453L226.305 28.3789Z" fill="#222325"/>
<path d="M243.883 28.3984L243.863 24.2578L233.988 24.3086L233.969 20.168L242.801 20.1172L242.781 15.9844L233.945 16.0273L233.93 12.2305L243.281 12.1836L243.258 8.04297L229.418 8.11328L229.523 28.4688L243.883 28.3984Z" fill="#222325"/>
<path d="M253.902 24.2891L251.57 24.3008L251.504 12.2188L254.152 12.2031C255.09 12.1992 255.988 12.3164 256.844 12.5547C257.691 12.7852 258.441 13.1406 259.078 13.6172C259.719 14.0977 260.223 14.7031 260.598 15.4375C260.977 16.1758 261.172 17.043 261.176 18.043C261.184 19.1914 261 20.168 260.633 20.9609C260.262 21.7617 259.75 22.4023 259.102 22.8984C258.453 23.3906 257.68 23.7422 256.793 23.9648C255.906 24.1758 254.937 24.2852 253.902 24.2891ZM262.43 25.7852C263.48 24.9297 264.312 23.8672 264.93 22.6094C265.547 21.3477 265.848 19.8945 265.84 18.2461C265.832 16.3867 265.5 14.8125 264.852 13.5078C264.199 12.2031 263.324 11.1563 262.227 10.3438C261.129 9.53516 259.844 8.95313 258.375 8.59766C256.902 8.24219 255.355 8.07032 253.723 8.07422L246.992 8.10938L247.102 28.4688L254.441 28.4297C255.953 28.4258 257.402 28.1992 258.785 27.7461C260.16 27.293 261.379 26.6445 262.43 25.7852Z" fill="#222325"/>
<path d="M280.512 16.3672L280.531 20.5078L284.191 20.4883L284.207 23.7969C283.785 24.0312 283.219 24.2578 282.516 24.4805C281.805 24.7031 280.961 24.8164 279.984 24.8242C279.023 24.8281 278.152 24.668 277.375 24.3516C276.598 24.0313 275.926 23.5742 275.367 22.9922C274.805 22.4102 274.379 21.7227 274.074 20.9258C273.773 20.1328 273.617 19.2578 273.613 18.2969C273.605 17.3594 273.754 16.4883 274.047 15.6797C274.34 14.8672 274.762 14.1758 275.316 13.582C275.871 12.9922 276.539 12.5352 277.309 12.2031C278.086 11.875 278.953 11.7031 279.91 11.7031C281.059 11.6992 282.027 11.8555 282.793 12.1758C283.562 12.5 284.258 12.9766 284.871 13.6016L288.02 10.1328C286.98 9.17969 285.773 8.51172 284.395 8.125C283.023 7.73828 281.52 7.55469 279.891 7.55859C278.297 7.56641 276.832 7.82422 275.496 8.33203C274.152 8.83594 272.996 9.55078 272.02 10.4883C271.043 11.4258 270.289 12.5586 269.75 13.8789C269.215 15.207 268.945 16.6836 268.957 18.3125C268.969 19.9453 269.246 21.4141 269.801 22.7422C270.355 24.0625 271.121 25.1836 272.109 26.1055C273.09 27.0312 274.258 27.7383 275.602 28.2305C276.941 28.7187 278.414 28.9648 280.008 28.9531C281.504 28.9453 282.969 28.7852 284.406 28.4688C285.844 28.1602 287.219 27.6484 288.539 26.9492L288.484 16.3086L280.512 16.3672Z" fill="#222325"/>
<path d="M306.117 27.9258L306.094 23.7852L296.227 23.8398L296.203 19.6953L305.039 19.6523L305.016 15.5117L296.184 15.5547L296.16 11.7617L305.512 11.7109L305.496 7.57031L291.652 7.64063L291.758 28.0039L306.117 27.9258Z" fill="#222325"/>
<path d="M316.672 11.3828C317.074 11.3828 317.488 11.4063 317.91 11.461C318.332 11.5156 318.707 11.6211 319.031 11.7891C319.355 11.9492 319.629 12.1836 319.84 12.4883C320.051 12.793 320.156 13.2031 320.16 13.7227C320.16 14.2813 320.047 14.711 319.805 15.0156C319.566 15.3242 319.27 15.5547 318.902 15.6953C318.535 15.8438 318.129 15.9258 317.68 15.961C317.23 15.9883 316.805 16.0117 316.398 16.0117L313.754 16.0274L313.73 11.3985L316.672 11.3828ZM313.824 27.9649L313.781 19.8242L315.992 19.8125L320.297 27.9258L325.676 27.8985L320.449 19.3281C321.887 19.0508 322.98 18.4063 323.723 17.4024C324.465 16.3867 324.836 15.168 324.828 13.7305C324.824 12.543 324.613 11.5508 324.195 10.7617C323.781 9.96877 323.219 9.33596 322.516 8.87502C321.809 8.40627 320.992 8.07424 320.062 7.88284C319.129 7.67971 318.148 7.58596 317.109 7.59377L309.223 7.63284L309.328 27.9883L313.824 27.9649Z" fill="#222325"/>
<path d="M112.281 64.8516C112.281 52.0234 121.715 43.5742 133.434 43.5742C140.77 43.5742 145.828 46.7813 149.402 51.2227L145.336 53.8125C142.746 50.4805 138.363 48.1367 133.434 48.1367C124.43 48.1367 117.582 54.9805 117.582 64.8516C117.582 74.5938 124.43 81.5625 133.434 81.5625C138.363 81.5625 142.438 79.2187 144.531 77.1211V68.7969H130.348V64.2344H149.59V79.0352C145.766 83.3516 140.152 86.1875 133.434 86.1875C121.715 86.1875 112.281 77.6133 112.281 64.8516Z" fill="#F35F19"/>
<path d="M182.094 56.6484C182.094 51.9609 178.703 48.8164 173.832 48.8164H163.039V64.543H173.832C178.703 64.543 182.094 61.2734 182.094 56.6484ZM181.723 85.3867L171.301 69.043H163.039V85.3867H157.922V44.2539H174.445C181.973 44.2539 187.398 49.0625 187.398 56.6484C187.398 64.0469 182.281 68.1172 176.668 68.6133L187.77 85.3867H181.723Z" fill="#F35F19"/>
<path d="M195.48 85.3867V44.2539H200.598V85.3867H195.48Z" fill="#F35F19"/>
<path d="M240.07 64.8516C240.07 55.9688 234.457 48.8164 224.281 48.8164H215.34V80.8242H224.281C234.273 80.8242 240.07 73.668 240.07 64.8516ZM210.223 85.3867V44.2539H224.281C237.109 44.2539 245.371 53.1953 245.371 64.8516C245.371 76.5664 237.109 85.3867 224.281 85.3867H210.223Z" fill="#F35F19"/>
<path d="M48.8516 25.4062V10.6992H63.0938V25.4062H48.8516Z" fill="#222325"/>
<path d="M68.0781 25.4062V10.6992H82.0195V25.4062H68.0781Z" fill="#222325"/>
<path d="M10.6992 44.1914V30.3906H25.082V44.1914H10.6992Z" fill="#222325"/>
<path d="M48.8516 44.1914V30.3906H63.0938V44.1914H48.8516Z" fill="#222325"/>
<path d="M30.0664 82.0195V68.3984H43.8672V82.0195H30.0664Z" fill="#222325"/>
<path d="M30.0664 25.4062V10.6992H43.8672V25.4062H30.0664Z" fill="#222325"/>
<path d="M68.0781 44.1914V30.3906H82.0195V44.1914H68.0781Z" fill="#222325"/>
<path d="M30.0664 44.1914V30.3906H43.8672V44.1914H30.0664Z" fill="#222325"/>
<path d="M30.0664 63.4141V49.1758H43.8672V63.4141H30.0664Z" fill="#222325"/>
<path d="M48.8516 63.4141V49.1758H63.0938V63.4141H48.8516Z" fill="#F35F19"/>
<path d="M10.6992 25.4062V10.6992H25.082V25.4062H10.6992Z" fill="#F35F19"/>
<path d="M10.6992 82.0195V68.3984H25.082V82.0195H10.6992Z" fill="#222325"/>
<path d="M10.6992 63.4141V49.1758H25.082V63.4141H10.6992Z" fill="#222325"/>
<path d="M92.7188 0H0V92.7188H92.7188V0ZM87.6992 5.01953V87.6992H5.01953V5.01953H87.6992Z" fill="#F35F19"/>
</svg>
