<!--
  Copyright 2018-2021 Cargill Incorporated
  Licensed under Creative Commons Attribution 4.0 International License
  https://creativecommons.org/licenses/by/4.0/
-->

<svg width="600" height="184" viewBox="0 0 600 184" fill="none" xmlns="http://www.w3.org/2000/svg">
<rect width="600" height="184" fill="white"/>
<path d="M92.7344 58.8125L91.5547 57.8984C91.9297 57.4766 92.3203 57.0729 92.7266 56.6875C92.888 56.5312 92.9896 56.4323 93.0312 56.3906C92.901 56.3698 92.5286 56.2839 91.9141 56.1328C91.4714 56.0234 91.1797 55.9427 91.0391 55.8906L91.5 54.5156C92.1823 54.7917 92.7917 55.0964 93.3281 55.4297C93.2031 54.5807 93.1406 53.888 93.1406 53.3516H94.5312C94.5312 53.7318 94.4609 54.4297 94.3203 55.4453C94.4245 55.4036 94.6484 55.3021 94.9922 55.1406C95.4609 54.9271 95.8932 54.7448 96.2891 54.5938L96.7031 56.0078C96.125 56.138 95.4557 56.2656 94.6953 56.3906L95.6328 57.4453C95.8203 57.6589 95.9688 57.8333 96.0781 57.9688L94.8828 58.7578L93.8281 57.0156C93.5104 57.5781 93.1458 58.1771 92.7344 58.8125Z" fill="#F35F19"/>
<path d="M51.0732 65V55.0605H53.0967V63.3115H58.1279V65H51.0732ZM60.999 59.9551L59.2559 59.6406C59.4518 58.9388 59.7891 58.4193 60.2676 58.082C60.7461 57.7448 61.457 57.5762 62.4004 57.5762C63.2572 57.5762 63.8952 57.6787 64.3145 57.8838C64.7337 58.0843 65.0277 58.3418 65.1963 58.6562C65.3695 58.9661 65.4561 59.5381 65.4561 60.3721L65.4355 62.6143C65.4355 63.2523 65.4652 63.724 65.5244 64.0293C65.5882 64.3301 65.7044 64.6536 65.873 65H63.9727C63.9225 64.8724 63.861 64.6833 63.7881 64.4326C63.7562 64.3187 63.7334 64.2435 63.7197 64.207C63.3916 64.526 63.0407 64.7653 62.667 64.9248C62.2933 65.0843 61.8945 65.1641 61.4707 65.1641C60.7233 65.1641 60.1331 64.9613 59.7002 64.5557C59.2718 64.1501 59.0576 63.6374 59.0576 63.0176C59.0576 62.6074 59.1556 62.2428 59.3516 61.9238C59.5475 61.6003 59.821 61.3542 60.1719 61.1855C60.5273 61.0124 61.0378 60.862 61.7031 60.7344C62.6009 60.5658 63.223 60.4085 63.5693 60.2627V60.0713C63.5693 59.7021 63.4782 59.4401 63.2959 59.2852C63.1136 59.1257 62.7695 59.0459 62.2637 59.0459C61.9219 59.0459 61.6553 59.1143 61.4639 59.251C61.2725 59.3831 61.1175 59.6178 60.999 59.9551ZM63.5693 61.5137C63.3232 61.5957 62.9336 61.6937 62.4004 61.8076C61.8672 61.9215 61.5186 62.0332 61.3545 62.1426C61.1038 62.3203 60.9785 62.5459 60.9785 62.8193C60.9785 63.0882 61.0788 63.3206 61.2793 63.5166C61.4798 63.7126 61.735 63.8105 62.0449 63.8105C62.3913 63.8105 62.7217 63.6966 63.0361 63.4688C63.2686 63.2956 63.4212 63.0837 63.4941 62.833C63.5443 62.6689 63.5693 62.3568 63.5693 61.8965V61.5137ZM67.2744 65V54.9785H69.1953V58.5879C69.7878 57.9134 70.4896 57.5762 71.3008 57.5762C72.1849 57.5762 72.9163 57.8975 73.4951 58.54C74.0739 59.1781 74.3633 60.0964 74.3633 61.2949C74.3633 62.5345 74.0671 63.4893 73.4746 64.1592C72.8867 64.8291 72.1712 65.1641 71.3281 65.1641C70.9134 65.1641 70.5033 65.0615 70.0977 64.8564C69.6966 64.6468 69.3503 64.3392 69.0586 63.9336V65H67.2744ZM69.1816 61.2129C69.1816 61.9648 69.3001 62.5208 69.5371 62.8809C69.8698 63.3913 70.3118 63.6465 70.8633 63.6465C71.2871 63.6465 71.6471 63.4665 71.9434 63.1064C72.2441 62.7419 72.3945 62.1699 72.3945 61.3906C72.3945 60.5612 72.2441 59.9642 71.9434 59.5996C71.6426 59.2305 71.2575 59.0459 70.7881 59.0459C70.3278 59.0459 69.945 59.2259 69.6396 59.5859C69.3343 59.9414 69.1816 60.4837 69.1816 61.2129ZM80.1191 62.6895L82.0332 63.0107C81.7871 63.7126 81.3975 64.248 80.8643 64.6172C80.3356 64.9818 79.6725 65.1641 78.875 65.1641C77.6126 65.1641 76.6784 64.7516 76.0723 63.9268C75.5938 63.266 75.3545 62.432 75.3545 61.4248C75.3545 60.2217 75.6689 59.2806 76.2979 58.6016C76.9268 57.918 77.722 57.5762 78.6836 57.5762C79.7637 57.5762 80.6159 57.9339 81.2402 58.6494C81.8646 59.3604 82.1631 60.4518 82.1357 61.9238H77.3232C77.3369 62.4935 77.4919 62.9378 77.7881 63.2568C78.0843 63.5713 78.4535 63.7285 78.8955 63.7285C79.1963 63.7285 79.4492 63.6465 79.6543 63.4824C79.8594 63.3184 80.0143 63.054 80.1191 62.6895ZM80.2285 60.748C80.2148 60.1921 80.0713 59.7705 79.7979 59.4834C79.5244 59.1917 79.1917 59.0459 78.7998 59.0459C78.3805 59.0459 78.0342 59.1986 77.7607 59.5039C77.4873 59.8092 77.3529 60.224 77.3574 60.748H80.2285ZM83.708 65V54.9785H85.6289V65H83.708Z" fill="#595C60"/>
<rect x="51" y="76" width="498" height="43" rx="4" fill="white" stroke="#F35F19" stroke-width="2"/>
<path d="M519.41 94.59L524 99.17L528.59 94.59L530 96L524 102L518 96L519.41 94.59Z" fill="black"/>
<path d="M65.374 91.958H66.748V102H65.374V91.958ZM68.7988 94.6787H69.9678V95.7178C70.3141 95.2894 70.681 94.9818 71.0684 94.7949C71.4557 94.6081 71.8864 94.5146 72.3604 94.5146C73.3994 94.5146 74.1012 94.877 74.4658 95.6016C74.6663 95.998 74.7666 96.5654 74.7666 97.3037V102H73.5156V97.3857C73.5156 96.9391 73.4495 96.5791 73.3174 96.3057C73.0986 95.8499 72.7021 95.6221 72.1279 95.6221C71.8363 95.6221 71.597 95.6517 71.4102 95.7109C71.0729 95.8112 70.7767 96.0117 70.5215 96.3125C70.3164 96.554 70.182 96.8047 70.1182 97.0645C70.0589 97.3197 70.0293 97.6865 70.0293 98.165V102H68.7988V94.6787ZM79.6816 101.173C80.2559 101.173 80.7321 100.934 81.1104 100.455C81.4932 99.972 81.6846 99.252 81.6846 98.2949C81.6846 97.7116 81.6003 97.2103 81.4316 96.791C81.1126 95.9844 80.5293 95.5811 79.6816 95.5811C78.8294 95.5811 78.2461 96.0072 77.9316 96.8594C77.763 97.3151 77.6787 97.8939 77.6787 98.5957C77.6787 99.1608 77.763 99.6416 77.9316 100.038C78.2507 100.795 78.834 101.173 79.6816 101.173ZM76.4961 94.7129H77.6924V95.6836C77.9385 95.3509 78.2074 95.0934 78.499 94.9111C78.9137 94.6377 79.4014 94.501 79.9619 94.501C80.7913 94.501 81.4954 94.82 82.0742 95.458C82.653 96.0915 82.9424 96.9984 82.9424 98.1787C82.9424 99.7738 82.5254 100.913 81.6914 101.597C81.1628 102.03 80.5475 102.246 79.8457 102.246C79.2943 102.246 78.8317 102.125 78.458 101.884C78.2393 101.747 77.9954 101.512 77.7266 101.18V104.919H76.4961V94.7129ZM85.6152 94.6787V99.5391C85.6152 99.9128 85.6745 100.218 85.793 100.455C86.0117 100.893 86.4196 101.111 87.0166 101.111C87.8734 101.111 88.4567 100.729 88.7666 99.9629C88.9352 99.5527 89.0195 98.9899 89.0195 98.2744V94.6787H90.25V102H89.0879L89.1016 100.92C88.9421 101.198 88.7438 101.433 88.5068 101.624C88.0374 102.007 87.4678 102.198 86.7979 102.198C85.7542 102.198 85.0433 101.85 84.665 101.152C84.46 100.779 84.3574 100.28 84.3574 99.6553V94.6787H85.6152ZM92.4238 92.6348H93.668V94.6787H94.8369V95.6836H93.668V100.462C93.668 100.717 93.7546 100.888 93.9277 100.975C94.0234 101.025 94.1829 101.05 94.4062 101.05C94.4655 101.05 94.5293 101.05 94.5977 101.05C94.666 101.045 94.7458 101.038 94.8369 101.029V102C94.6956 102.041 94.5475 102.071 94.3926 102.089C94.2422 102.107 94.0781 102.116 93.9004 102.116C93.3262 102.116 92.9365 101.97 92.7314 101.679C92.5264 101.382 92.4238 101 92.4238 100.53V95.6836H91.4326V94.6787H92.4238V92.6348ZM100.217 92.6348H101.461V94.6787H102.63V95.6836H101.461V100.462C101.461 100.717 101.548 100.888 101.721 100.975C101.816 101.025 101.976 101.05 102.199 101.05C102.258 101.05 102.322 101.05 102.391 101.05C102.459 101.045 102.539 101.038 102.63 101.029V102C102.489 102.041 102.34 102.071 102.186 102.089C102.035 102.107 101.871 102.116 101.693 102.116C101.119 102.116 100.729 101.97 100.524 101.679C100.319 101.382 100.217 101 100.217 100.53V95.6836H99.2256V94.6787H100.217V92.6348ZM106.916 94.5146C107.436 94.5146 107.939 94.6377 108.427 94.8838C108.914 95.1253 109.286 95.4398 109.541 95.8271C109.787 96.1963 109.951 96.627 110.033 97.1191C110.106 97.4564 110.143 97.9941 110.143 98.7324H104.776C104.799 99.4753 104.975 100.072 105.303 100.523C105.631 100.97 106.139 101.193 106.827 101.193C107.47 101.193 107.982 100.981 108.365 100.558C108.584 100.312 108.739 100.027 108.83 99.7031H110.04C110.008 99.972 109.901 100.273 109.719 100.605C109.541 100.934 109.34 101.202 109.117 101.412C108.743 101.777 108.281 102.023 107.729 102.15C107.433 102.223 107.098 102.26 106.725 102.26C105.813 102.26 105.041 101.929 104.407 101.269C103.774 100.603 103.457 99.6735 103.457 98.4795C103.457 97.3037 103.776 96.349 104.414 95.6152C105.052 94.8815 105.886 94.5146 106.916 94.5146ZM108.878 97.7549C108.828 97.2217 108.712 96.7956 108.529 96.4766C108.192 95.8841 107.629 95.5879 106.841 95.5879C106.276 95.5879 105.802 95.793 105.419 96.2031C105.036 96.6087 104.833 97.126 104.811 97.7549H108.878ZM110.963 94.6787H112.556L114.237 97.2559L115.939 94.6787L117.437 94.7129L114.969 98.2471L117.546 102H115.974L114.155 99.252L112.392 102H110.833L113.41 98.2471L110.963 94.6787ZM118.906 92.6348H120.15V94.6787H121.319V95.6836H120.15V100.462C120.15 100.717 120.237 100.888 120.41 100.975C120.506 101.025 120.665 101.05 120.889 101.05C120.948 101.05 121.012 101.05 121.08 101.05C121.148 101.045 121.228 101.038 121.319 101.029V102C121.178 102.041 121.03 102.071 120.875 102.089C120.725 102.107 120.561 102.116 120.383 102.116C119.809 102.116 119.419 101.97 119.214 101.679C119.009 101.382 118.906 101 118.906 100.53V95.6836H117.915V94.6787H118.906V92.6348Z" fill="#666666"/>
<path d="M50.9399 127.11H56.6924V128.077H51.9819V130.472H56.3379V131.385H51.9819V134.06H56.7729V135H50.9399V127.11ZM58.0728 129.248H58.9912V130.241C59.0664 130.048 59.2508 129.813 59.5444 129.538C59.8381 129.258 60.1764 129.119 60.5596 129.119C60.5775 129.119 60.6079 129.12 60.6509 129.124C60.6938 129.128 60.7673 129.135 60.8711 129.146V130.166C60.8138 130.155 60.7601 130.148 60.71 130.145C60.6634 130.141 60.6115 130.139 60.5542 130.139C60.0672 130.139 59.693 130.297 59.4316 130.612C59.1702 130.923 59.0396 131.283 59.0396 131.691V135H58.0728V129.248ZM61.7358 129.248H62.6543V130.241C62.7295 130.048 62.9139 129.813 63.2075 129.538C63.5011 129.258 63.8395 129.119 64.2227 129.119C64.2406 129.119 64.271 129.12 64.314 129.124C64.3569 129.128 64.4303 129.135 64.5342 129.146V130.166C64.4769 130.155 64.4232 130.148 64.373 130.145C64.3265 130.141 64.2746 130.139 64.2173 130.139C63.7303 130.139 63.3561 130.297 63.0947 130.612C62.8333 130.923 62.7026 131.283 62.7026 131.691V135H61.7358V129.248ZM67.6548 134.377C68.2957 134.377 68.7344 134.135 68.9707 133.652C69.2106 133.165 69.3306 132.624 69.3306 132.03C69.3306 131.493 69.2446 131.056 69.0728 130.719C68.8006 130.189 68.3315 129.924 67.6655 129.924C67.0747 129.924 66.645 130.15 66.3765 130.601C66.1079 131.052 65.9736 131.597 65.9736 132.234C65.9736 132.846 66.1079 133.356 66.3765 133.765C66.645 134.173 67.0711 134.377 67.6548 134.377ZM67.6924 129.081C68.4336 129.081 69.0602 129.328 69.5723 129.822C70.0843 130.316 70.3403 131.043 70.3403 132.003C70.3403 132.93 70.1147 133.697 69.6636 134.302C69.2124 134.907 68.5124 135.209 67.5635 135.209C66.7721 135.209 66.1437 134.943 65.6782 134.409C65.2127 133.872 64.98 133.152 64.98 132.25C64.98 131.283 65.2253 130.513 65.7158 129.94C66.2064 129.368 66.8652 129.081 67.6924 129.081ZM71.522 129.248H72.4404V130.241C72.5156 130.048 72.7 129.813 72.9937 129.538C73.2873 129.258 73.6257 129.119 74.0088 129.119C74.0267 129.119 74.0571 129.12 74.1001 129.124C74.1431 129.128 74.2165 129.135 74.3203 129.146V130.166C74.263 130.155 74.2093 130.148 74.1592 130.145C74.1126 130.141 74.0607 130.139 74.0034 130.139C73.5164 130.139 73.1423 130.297 72.8809 130.612C72.6195 130.923 72.4888 131.283 72.4888 131.691V135H71.522V129.248ZM78.2197 127.083H79.1865V130.026C79.4157 129.736 79.6216 129.532 79.8042 129.414C80.1157 129.21 80.5042 129.108 80.9697 129.108C81.804 129.108 82.3698 129.4 82.667 129.983C82.8281 130.302 82.9087 130.744 82.9087 131.31V135H81.915V131.375C81.915 130.952 81.8613 130.642 81.7539 130.445C81.5785 130.13 81.249 129.973 80.7656 129.973C80.3646 129.973 80.0011 130.111 79.6753 130.386C79.3494 130.662 79.1865 131.183 79.1865 131.949V135H78.2197V127.083ZM86.7383 129.119C87.1465 129.119 87.5422 129.215 87.9253 129.409C88.3084 129.598 88.6003 129.846 88.8008 130.15C88.9941 130.44 89.123 130.778 89.1875 131.165C89.2448 131.43 89.2734 131.853 89.2734 132.433H85.0571C85.075 133.016 85.2129 133.485 85.4707 133.84C85.7285 134.191 86.1278 134.366 86.6685 134.366C87.1733 134.366 87.5762 134.2 87.877 133.867C88.0488 133.673 88.1706 133.45 88.2422 133.195H89.1929C89.1678 133.407 89.0837 133.643 88.9404 133.904C88.8008 134.162 88.6432 134.373 88.4678 134.538C88.1742 134.825 87.8107 135.018 87.3774 135.118C87.1447 135.175 86.8815 135.204 86.5879 135.204C85.8717 135.204 85.2648 134.944 84.7671 134.425C84.2694 133.903 84.0205 133.172 84.0205 132.234C84.0205 131.31 84.2712 130.56 84.7725 129.983C85.2738 129.407 85.929 129.119 86.7383 129.119ZM88.2798 131.665C88.2404 131.246 88.1491 130.911 88.0059 130.66C87.7409 130.195 87.2987 129.962 86.6792 129.962C86.2352 129.962 85.8628 130.123 85.562 130.445C85.2612 130.764 85.1019 131.17 85.084 131.665H88.2798ZM90.4927 127.11H91.4595V135H90.4927V127.11ZM95.3428 134.35C95.7939 134.35 96.1681 134.162 96.4653 133.786C96.7661 133.407 96.9165 132.841 96.9165 132.089C96.9165 131.631 96.8503 131.237 96.7178 130.907C96.4671 130.273 96.0088 129.957 95.3428 129.957C94.6732 129.957 94.2148 130.291 93.9678 130.961C93.8353 131.319 93.769 131.774 93.769 132.325C93.769 132.769 93.8353 133.147 93.9678 133.458C94.2184 134.053 94.6768 134.35 95.3428 134.35ZM92.8398 129.274H93.7798V130.037C93.9731 129.776 94.1844 129.573 94.4136 129.43C94.7394 129.215 95.1226 129.108 95.563 129.108C96.2147 129.108 96.7679 129.359 97.2227 129.86C97.6774 130.358 97.9048 131.07 97.9048 131.998C97.9048 133.251 97.5771 134.146 96.9219 134.683C96.5065 135.023 96.0231 135.193 95.4717 135.193C95.0384 135.193 94.675 135.098 94.3813 134.909C94.2095 134.801 94.0179 134.617 93.8066 134.355V137.293H92.8398V129.274ZM102.293 127.642H103.271V129.248H104.189V130.037H103.271V133.792C103.271 133.992 103.339 134.126 103.475 134.194C103.55 134.234 103.675 134.253 103.851 134.253C103.897 134.253 103.947 134.253 104.001 134.253C104.055 134.25 104.117 134.244 104.189 134.237V135C104.078 135.032 103.962 135.056 103.84 135.07C103.722 135.084 103.593 135.091 103.453 135.091C103.002 135.091 102.696 134.977 102.535 134.748C102.374 134.515 102.293 134.214 102.293 133.845V130.037H101.514V129.248H102.293V127.642ZM107.557 129.119C107.965 129.119 108.361 129.215 108.744 129.409C109.127 129.598 109.419 129.846 109.619 130.15C109.812 130.44 109.941 130.778 110.006 131.165C110.063 131.43 110.092 131.853 110.092 132.433H105.875C105.893 133.016 106.031 133.485 106.289 133.84C106.547 134.191 106.946 134.366 107.487 134.366C107.992 134.366 108.395 134.2 108.695 133.867C108.867 133.673 108.989 133.45 109.061 133.195H110.011C109.986 133.407 109.902 133.643 109.759 133.904C109.619 134.162 109.462 134.373 109.286 134.538C108.993 134.825 108.629 135.018 108.196 135.118C107.963 135.175 107.7 135.204 107.406 135.204C106.69 135.204 106.083 134.944 105.585 134.425C105.088 133.903 104.839 133.172 104.839 132.234C104.839 131.31 105.09 130.56 105.591 129.983C106.092 129.407 106.747 129.119 107.557 129.119ZM109.098 131.665C109.059 131.246 108.967 130.911 108.824 130.66C108.559 130.195 108.117 129.962 107.498 129.962C107.054 129.962 106.681 130.123 106.38 130.445C106.08 130.764 105.92 131.17 105.902 131.665H109.098ZM110.736 129.248H111.988L113.309 131.272L114.646 129.248L115.823 129.274L113.884 132.051L115.909 135H114.673L113.245 132.841L111.859 135H110.634L112.659 132.051L110.736 129.248ZM116.978 127.642H117.955V129.248H118.874V130.037H117.955V133.792C117.955 133.992 118.023 134.126 118.159 134.194C118.234 134.234 118.36 134.253 118.535 134.253C118.582 134.253 118.632 134.253 118.686 134.253C118.739 134.25 118.802 134.244 118.874 134.237V135C118.763 135.032 118.646 135.056 118.524 135.07C118.406 135.084 118.277 135.091 118.138 135.091C117.687 135.091 117.38 134.977 117.219 134.748C117.058 134.515 116.978 134.214 116.978 133.845V130.037H116.199V129.248H116.978V127.642Z" fill="#F32019"/>
<line x1="28.3536" y1="28.6464" x2="50.3536" y2="50.6464" stroke="black"/>
<circle cx="27.5" cy="28.5" r="12.5" fill="black"/>
<path d="M28.7676 32H27.2583V26.312C26.7069 26.8276 26.057 27.209 25.3086 27.4561V26.0864C25.7025 25.9575 26.1304 25.714 26.5923 25.356C27.0542 24.9943 27.3711 24.5736 27.543 24.0938H28.7676V32Z" fill="white"/>
<line x1="569.378" y1="43.3275" x2="530.378" y2="88.3275" stroke="black"/>
<circle cx="568.5" cy="42.5" r="12.5" fill="black"/>
<path d="M565.852 43.9106L567.313 43.7334C567.36 44.1058 567.485 44.3905 567.689 44.5874C567.893 44.7843 568.14 44.8828 568.43 44.8828C568.742 44.8828 569.003 44.7646 569.214 44.5283C569.429 44.292 569.537 43.9733 569.537 43.5723C569.537 43.1927 569.435 42.8919 569.23 42.6699C569.026 42.4479 568.778 42.3369 568.484 42.3369C568.291 42.3369 568.06 42.3745 567.791 42.4497L567.958 41.2197C568.366 41.2305 568.677 41.1427 568.892 40.9565C569.107 40.7668 569.214 40.5161 569.214 40.2046C569.214 39.9396 569.136 39.7284 568.978 39.5708C568.82 39.4132 568.611 39.3345 568.35 39.3345C568.092 39.3345 567.872 39.424 567.689 39.603C567.506 39.7821 567.395 40.0435 567.356 40.3872L565.965 40.1509C566.062 39.6746 566.207 39.2951 566.4 39.0122C566.597 38.7257 566.869 38.502 567.216 38.3408C567.567 38.1761 567.959 38.0938 568.393 38.0938C569.134 38.0938 569.728 38.3301 570.176 38.8027C570.545 39.1895 570.729 39.6263 570.729 40.1133C570.729 40.8044 570.351 41.3558 569.596 41.7676C570.047 41.8643 570.407 42.0809 570.675 42.4175C570.947 42.7541 571.083 43.1605 571.083 43.6367C571.083 44.3278 570.831 44.9168 570.326 45.4038C569.821 45.8908 569.193 46.1343 568.441 46.1343C567.728 46.1343 567.138 45.9302 566.668 45.522C566.199 45.1102 565.927 44.5731 565.852 43.9106Z" fill="white"/>
<line x1="296.5" y1="29" x2="296.5" y2="75" stroke="black"/>
<circle cx="296.5" cy="28.5" r="12.5" fill="black"/>
<path d="M299.003 30.5981V32H293.712C293.77 31.4701 293.942 30.9688 294.228 30.4961C294.514 30.0199 295.08 29.3896 295.925 28.6055C296.606 27.9717 297.023 27.542 297.177 27.3164C297.384 27.0049 297.488 26.6969 297.488 26.3926C297.488 26.056 297.397 25.7982 297.214 25.6191C297.035 25.4365 296.786 25.3452 296.468 25.3452C296.153 25.3452 295.902 25.4401 295.716 25.6299C295.53 25.8197 295.422 26.1348 295.394 26.5752L293.89 26.4248C293.979 25.5941 294.26 24.9979 294.733 24.6362C295.206 24.2746 295.796 24.0938 296.505 24.0938C297.282 24.0938 297.893 24.3032 298.337 24.7222C298.781 25.1411 299.003 25.6621 299.003 26.2852C299.003 26.6396 298.938 26.978 298.81 27.3003C298.684 27.619 298.484 27.9538 298.208 28.3047C298.025 28.5374 297.696 28.8722 297.22 29.3091C296.743 29.7459 296.441 30.036 296.312 30.1792C296.187 30.3224 296.085 30.4621 296.006 30.5981H299.003Z" fill="white"/>
<line x1="15" y1="97.5" x2="56" y2="97.5" stroke="black"/>
<circle cx="24.5" cy="97.5" r="12.5" fill="black"/>
<path d="M24.8652 101V99.4155H21.6426V98.0942L25.0586 93.0938H26.3262V98.0889H27.3037V99.4155H26.3262V101H24.8652ZM24.8652 98.0889V95.3979L23.0552 98.0889H24.8652Z" fill="white"/>
<line x1="166.895" y1="147.489" x2="124.895" y2="138.489" stroke="black"/>
<circle cx="167.5" cy="146.5" r="12.5" fill="black"/>
<path d="M164.927 147.975L166.431 147.819C166.474 148.16 166.601 148.43 166.812 148.63C167.024 148.827 167.267 148.926 167.543 148.926C167.858 148.926 168.125 148.799 168.343 148.544C168.562 148.287 168.671 147.9 168.671 147.384C168.671 146.901 168.562 146.539 168.343 146.299C168.128 146.056 167.847 145.934 167.5 145.934C167.067 145.934 166.678 146.126 166.334 146.509L165.11 146.332L165.883 142.233H169.874V143.646H167.027L166.791 144.983C167.128 144.815 167.471 144.731 167.822 144.731C168.492 144.731 169.059 144.974 169.525 145.461C169.99 145.948 170.223 146.58 170.223 147.357C170.223 148.006 170.035 148.584 169.659 149.092C169.147 149.787 168.436 150.134 167.527 150.134C166.8 150.134 166.207 149.939 165.749 149.549C165.291 149.159 165.017 148.634 164.927 147.975Z" fill="white"/>
</svg>
